<svg width="159" height="56" viewBox="0 0 159 56" fill="none" xmlns="http://www.w3.org/2000/svg">
<g clip-path="url(#clip0_246_669)">
<path d="M13.4537 25.2477C14.8974 25.2477 16.0678 24.0773 16.0678 22.6336C16.0678 21.1899 14.8974 20.0195 13.4537 20.0195C12.01 20.0195 10.8396 21.1899 10.8396 22.6336C10.8396 24.0773 12.01 25.2477 13.4537 25.2477Z" fill="#E1372D"/>
<path d="M6.14069 43.3463C7.5844 43.3463 8.75477 42.176 8.75477 40.7322C8.75477 39.2885 7.5844 38.1182 6.14069 38.1182C4.69697 38.1182 3.52661 39.2885 3.52661 40.7322C3.52661 42.176 4.69697 43.3463 6.14069 43.3463Z" fill="#E1372D"/>
<path d="M19.0862 6.92445C20.53 6.92445 21.7003 5.75408 21.7003 4.31037C21.7003 2.86665 20.53 1.69629 19.0862 1.69629C17.6425 1.69629 16.4722 2.86665 16.4722 4.31037C16.4722 5.75408 17.6425 6.92445 19.0862 6.92445Z" fill="#E1372D"/>
<path d="M29.1133 15.1364C30.5571 15.1364 31.7274 13.966 31.7274 12.5223C31.7274 11.0786 30.5571 9.9082 29.1133 9.9082C27.6696 9.9082 26.4993 11.0786 26.4993 12.5223C26.4993 13.966 27.6696 15.1364 29.1133 15.1364Z" fill="#E1372D"/>
<path d="M39.4647 8.20081C40.9084 8.20081 42.0787 7.03045 42.0787 5.58673C42.0787 4.14302 40.9084 2.97266 39.4647 2.97266C38.0209 2.97266 36.8506 4.14302 36.8506 5.58673C36.8506 7.03045 38.0209 8.20081 39.4647 8.20081Z" fill="#E1372D"/>
<path d="M46.4561 13.4288C47.8998 13.4288 49.0702 12.2585 49.0702 10.8148C49.0702 9.37105 47.8998 8.20068 46.4561 8.20068C45.0124 8.20068 43.842 9.37105 43.842 10.8148C43.842 12.2585 45.0124 13.4288 46.4561 13.4288Z" fill="#E1372D"/>
<path d="M38.9256 41.6149C40.3693 41.6149 41.5397 40.4445 41.5397 39.0008C41.5397 37.5571 40.3693 36.3867 38.9256 36.3867C37.4819 36.3867 36.3115 37.5571 36.3115 39.0008C36.3115 40.4445 37.4819 41.6149 38.9256 41.6149Z" fill="#E1372D"/>
<path d="M37.0311 54.0153C38.4748 54.0153 39.6451 52.8449 39.6451 51.4012C39.6451 49.9575 38.4748 48.7871 37.0311 48.7871C35.5874 48.7871 34.417 49.9575 34.417 51.4012C34.417 52.8449 35.5874 54.0153 37.0311 54.0153Z" fill="#E1372D"/>
<path d="M26.4981 55.8156C27.9418 55.8156 29.1122 54.6452 29.1122 53.2015C29.1122 51.7578 27.9418 50.5874 26.4981 50.5874C25.0544 50.5874 23.884 51.7578 23.884 53.2015C23.884 54.6452 25.0544 55.8156 26.4981 55.8156Z" fill="#E1372D"/>
<path d="M19.3978 43.3287C20.8415 43.3287 22.0118 42.1584 22.0118 40.7147C22.0118 39.271 20.8415 38.1006 19.3978 38.1006C17.9541 38.1006 16.7837 39.271 16.7837 40.7147C16.7837 42.1584 17.9541 43.3287 19.3978 43.3287Z" fill="#E1372D"/>
<path d="M5.16624 23.7578C7.24781 23.7578 8.93526 22.0703 8.93526 19.9887C8.93526 17.9072 7.24781 16.2197 5.16624 16.2197C3.08466 16.2197 1.39722 17.9072 1.39722 19.9887C1.39722 22.0703 3.08466 23.7578 5.16624 23.7578Z" fill="#E1372D"/>
<path d="M11.7993 36.9458C13.8809 36.9458 15.5683 35.2583 15.5683 33.1767C15.5683 31.0952 13.8809 29.4077 11.7993 29.4077C9.71772 29.4077 8.03027 31.0952 8.03027 33.1767C8.03027 35.2583 9.71772 36.9458 11.7993 36.9458Z" fill="#E1372D"/>
<path d="M28.9231 7.53804C31.0046 7.53804 32.6921 5.85059 32.6921 3.76902C32.6921 1.68745 31.0046 0 28.9231 0C26.8415 0 25.1541 1.68745 25.1541 3.76902C25.1541 5.85059 26.8415 7.53804 28.9231 7.53804Z" fill="#E1372D"/>
<path d="M19.2668 17.3564C21.3484 17.3564 23.0358 15.669 23.0358 13.5874C23.0358 11.5058 21.3484 9.81836 19.2668 9.81836C17.1853 9.81836 15.4978 11.5058 15.4978 13.5874C15.4978 15.669 17.1853 17.3564 19.2668 17.3564Z" fill="#E1372D"/>
<path d="M38.9255 18.9057C41.0071 18.9057 42.6945 17.2183 42.6945 15.1367C42.6945 13.0551 41.0071 11.3677 38.9255 11.3677C36.8439 11.3677 35.1565 13.0551 35.1565 15.1367C35.1565 17.2183 36.8439 18.9057 38.9255 18.9057Z" fill="#E1372D"/>
<path d="M14.4629 51.8413C16.5444 51.8413 18.2319 50.1538 18.2319 48.0722C18.2319 45.9907 16.5444 44.3032 14.4629 44.3032C12.3813 44.3032 10.6938 45.9907 10.6938 48.0722C10.6938 50.1538 12.3813 51.8413 14.4629 51.8413Z" fill="#E1372D"/>
<path d="M29.2939 48.4335C31.3755 48.4335 33.0629 46.7461 33.0629 44.6645C33.0629 42.583 31.3755 40.8955 29.2939 40.8955C27.2124 40.8955 25.5249 42.583 25.5249 44.6645C25.5249 46.7461 27.2124 48.4335 29.2939 48.4335Z" fill="#E1372D"/>
<path d="M45.6673 48.4816C47.3323 48.4816 48.682 47.1319 48.682 45.4669C48.682 43.8019 47.3323 42.4521 45.6673 42.4521C44.0023 42.4521 42.6526 43.8019 42.6526 45.4669C42.6526 47.1319 44.0023 48.4816 45.6673 48.4816Z" fill="#E1372D"/>
<path d="M3.01472 33.6676C4.67971 33.6676 6.02944 32.3179 6.02944 30.6529C6.02944 28.9879 4.67971 27.6382 3.01472 27.6382C1.34974 27.6382 0 28.9879 0 30.6529C0 32.3179 1.34974 33.6676 3.01472 33.6676Z" fill="#E1372D"/>
<path d="M11.2354 12.4015C12.9004 12.4015 14.2501 11.0518 14.2501 9.38679C14.2501 7.72181 12.9004 6.37207 11.2354 6.37207C9.57044 6.37207 8.2207 7.72181 8.2207 9.38679C8.2207 11.0518 9.57044 12.4015 11.2354 12.4015Z" fill="#E1372D"/>
<path d="M39.1977 39.4633L38.6524 38.5371L29.0926 44.1597L15.6636 47.2449L19.8444 41.0139L18.9528 40.4154L14.7572 46.6687L12.3694 33.3114L12.174 32.7253L6.22123 20.889L13.2906 23.1457L13.6171 22.1218L6.65897 19.901L19.5797 14.0348L28.4137 5.05242L28.5757 12.5336L29.6502 12.5101L29.492 5.22801L38.8119 15.8203L46.7234 11.281L46.1879 10.3498L39.0382 14.4527L30.3316 4.55656L39.3733 6.11586L39.5563 5.05737L29.2014 3.27178L28.7377 3.19141L28.3815 3.55372L19.7788 12.2999L19.623 4.3006L18.5485 4.32162L18.7228 13.2446L6.45865 18.8128L11.7016 9.65365L10.7693 9.12069L4.78683 19.5721L4.43564 19.7316L10.768 32.3209L3.16323 30.1372L2.86646 31.1697L10.9028 33.4771L5.71053 40.4093L6.56994 41.0535L11.489 34.4874L13.8953 47.9535L13.9843 48.4518L14.4122 48.6348L26.2881 53.6948L26.7097 52.7068L16.1928 48.2255L29.147 45.2491L36.6788 51.8066L37.3837 50.9966L30.8151 45.2763L45.6414 46.0034L45.6933 44.9301L31.1168 44.2154L39.1977 39.4633Z" fill="#E1372D"/>
</g>
<g clip-path="url(#clip1_246_669)">
<path d="M59.3127 17.8726C61.1131 17.8726 63.078 18.204 64.4617 18.8692L64.1575 22.4676C62.9667 21.6651 61.3889 21.3052 59.811 21.3052C55.7415 21.3052 53.444 23.9626 53.444 27.8936C53.444 32.046 55.88 34.5092 59.8939 34.5092C61.5014 34.5092 62.9952 34.1221 64.2688 33.2368L64.6002 36.918C63.0224 37.6599 61.1131 37.9419 59.424 37.9419C53.0842 37.9419 49.0703 33.9564 49.0703 27.8936C49.0703 21.9693 53.057 17.8726 59.3127 17.8726Z" fill="white"/>
<path d="M80.2539 33.2639H73.2772L71.917 37.582H67.3257L74.081 18.2002H79.4514L86.2054 37.582H81.6104L80.2539 33.2639ZM74.3295 29.8869H79.2016L76.7656 22.0521L74.3295 29.8869Z" fill="white"/>
<path d="M96.324 17.8726C98.2345 17.8726 100.144 18.204 101.722 18.8408L101.417 22.3291C99.8395 21.6651 98.1516 21.3052 96.6282 21.3052C94.3863 21.3052 93.5009 22.0806 93.5009 23.1601C93.5009 24.3496 94.275 25.1806 96.9324 26.066C101.002 27.4262 102.744 29.2217 102.744 32.1845C102.744 35.81 100.28 37.9146 95.242 37.9146C93.1399 37.9146 90.8955 37.472 89.2076 36.6138L89.539 32.8213C91.0897 33.9008 93.0545 34.482 95.1035 34.482C97.0684 34.482 98.3705 33.8179 98.3705 32.3798C98.3705 31.0196 97.5667 30.2777 94.6608 29.3354C90.8708 28.1422 89.1235 26.2379 89.1235 23.3258C89.1235 19.9487 91.7005 17.8726 96.324 17.8726Z" fill="white"/>
<path d="M113.406 30.9107H111.026V37.5881H106.706V18.2002H113.406C118.222 18.2002 121.185 20.3605 121.185 24.54C121.185 28.7196 118.222 30.9107 113.406 30.9107ZM113.019 21.4709H111.026V27.6438H113.019C115.616 27.6438 116.811 26.7584 116.811 24.5437C116.811 22.3291 115.621 21.4709 113.019 21.4709Z" fill="white"/>
<path d="M124.813 18.2002H137.967V21.5785H129.136V25.9522H137.331V29.3292H129.136V34.2012H138.215V37.5783H124.813V18.2002Z" fill="white"/>
<path d="M153.658 29.6099L159 37.582H154.301L149.591 30.2739H147.242V37.582H142.914V18.2002H149.918C154.291 18.2002 157.557 20.1663 157.557 24.153C157.561 26.7584 156.067 28.6689 153.658 29.6099ZM149.644 21.4709H147.242V27.0069H149.651C151.892 27.0069 153.193 26.0387 153.193 24.1567C153.193 22.2746 151.886 21.4709 149.644 21.4709Z" fill="white"/>
</g>
<defs>
<clipPath id="clip0_246_669">
<rect width="49.0702" height="55.8156" fill="white"/>
</clipPath>
<clipPath id="clip1_246_669">
<rect width="109.93" height="20.0705" fill="white" transform="translate(49.0703 17.8726)"/>
</clipPath>
</defs>
</svg>
