<svg width="286" height="64" viewBox="0 0 286 64" fill="none" xmlns="http://www.w3.org/2000/svg">
<path d="M68.1299 51V63.93H27.8999V0H44.3899V51H68.1299Z" fill="white"/>
<path d="M0 16.6398H0.83C8.02 16.6398 15.22 16.6398 22.41 16.6398C22.7209 16.6092 23.0334 16.6792 23.3016 16.8394C23.5698 16.9996 23.7795 17.2416 23.9 17.5298C24.73 19.0998 25.66 20.6098 26.49 22.1698C26.7902 22.6926 26.9648 23.278 27 23.8798C27 36.9598 27 50.0432 27 63.1298C27.0073 63.3859 26.9339 63.6378 26.79 63.8498L0 16.6398Z" fill="#E5E5E5"/>
<path d="M25.3399 63.5999L0.159912 41.3799C0.509912 41.3799 0.679912 41.2999 0.849912 41.2999C4.60991 41.2999 8.36991 41.2999 12.1399 41.2999C12.3798 41.2802 12.6201 41.3336 12.829 41.4532C13.0378 41.5729 13.2055 41.753 13.3099 41.9699C17.2632 48.9699 21.2266 55.9799 25.1999 62.9999C25.2899 63.1699 25.3599 63.3599 25.4399 63.5499L25.3399 63.5999Z" fill="#C6C6C6"/>
<path d="M159.4 22.9198C159.4 20.9198 159.4 19.1298 159.4 17.3398C159.4 16.4098 158.82 16.1298 158.03 15.9998C157.721 15.9119 157.423 15.7912 157.14 15.6398L157.27 15.2798H163.7V16.5998C163.7 21.6698 163.7 26.7498 163.7 31.8198C163.7 32.9198 163.7 33.9498 165.11 34.1698C165.24 34.1698 165.33 34.4998 165.49 34.7798L159.6 35.7798L159.41 34.3298C159.31 34.3385 159.213 34.3621 159.12 34.3998C155.48 37.1498 151.51 35.7898 150.42 31.3998C149.901 29.3277 150.03 27.1462 150.79 25.1498C151.91 22.1098 155.74 19.5098 159.4 22.9198ZM159.4 28.5398C159.4 27.4298 159.4 26.3098 159.4 25.1898C159.384 24.685 159.191 24.2019 158.855 23.8252C158.518 23.4486 158.06 23.2024 157.56 23.1298C157.093 22.9883 156.589 23.0359 156.157 23.2622C155.725 23.4885 155.399 23.8755 155.25 24.3398C154.947 24.9475 154.773 25.6115 154.74 26.2898C154.694 28.4246 154.834 30.5594 155.16 32.6698C155.51 34.3798 157.3 34.6698 158.49 33.3798C158.964 32.7728 159.271 32.0522 159.38 31.2898C159.472 30.376 159.489 29.4563 159.43 28.5398H159.4Z" fill="white"/>
<path d="M141.42 35.5101C141.75 35.0601 141.93 34.8401 142.09 34.6001C142.41 34.1201 142.98 33.6001 143 33.1401C143.1 30.5801 143.07 28.0301 143 25.4701C143 24.0401 142.43 23.3701 141.41 23.3801C140.814 23.4257 140.252 23.6754 139.818 24.0871C139.385 24.4987 139.106 25.0472 139.03 25.6401C139.03 28.1101 139.03 30.5901 139.03 33.0601C138.979 33.3996 139.052 33.7461 139.236 34.0362C139.42 34.3263 139.701 34.5406 140.03 34.6401C140.23 34.7001 140.34 35.0301 140.7 35.5101C138.14 35.5101 135.92 35.5101 133.7 35.5101C133.53 35.5101 133.36 35.2801 133.2 35.1501C133.32 34.9901 133.42 34.7201 133.58 34.6801C134.58 34.4101 134.71 33.6801 134.7 32.8301C134.7 29.9601 134.7 27.0801 134.7 24.2101C134.7 23.3701 134.55 22.7101 133.61 22.4801C133.45 22.4801 133.33 22.1801 133.2 22.0301C133.36 21.9001 133.52 21.6501 133.68 21.6501C135.39 21.6501 137.1 21.6501 138.85 21.6501L138.98 23.1201C139.982 22.4467 141.055 21.8866 142.18 21.4501C145 20.6801 147.04 22.2201 147.18 25.1201C147.28 27.7101 147.26 30.3101 147.27 32.9001C147.27 33.7101 147.33 34.4301 148.27 34.6901C148.43 34.6901 148.53 35.0001 148.67 35.1601C148.46 35.2901 148.25 35.5201 148.04 35.5301C146 35.5201 143.86 35.5101 141.42 35.5101Z" fill="white"/>
<path d="M205.45 35.5101C205.79 35.0801 205.91 34.7301 206.13 34.6601C206.517 34.5502 206.851 34.3025 207.068 33.9636C207.286 33.6247 207.372 33.218 207.31 32.8201V24.1901C207.372 23.8113 207.288 23.4233 207.077 23.1028C206.866 22.7824 206.542 22.553 206.17 22.4601C205.98 22.4001 205.85 22.1201 205.69 21.9501C205.87 21.8301 206.04 21.6301 206.22 21.6301C207.92 21.6301 209.63 21.6301 211.38 21.6301L211.47 23.4401L212.3 22.7001C212.781 22.215 213.36 21.8369 213.997 21.5905C214.635 21.3441 215.317 21.2349 216 21.2701C218.24 21.3901 219.48 22.3501 219.66 24.5801C219.85 27.1601 219.76 29.7701 219.79 32.3601C219.79 33.3601 219.59 34.4401 221.02 34.7001C221.12 34.7001 221.26 35.0201 221.23 35.1601C221.201 35.2421 221.152 35.3154 221.088 35.3731C221.023 35.4309 220.945 35.4711 220.86 35.4901C218.78 35.4901 216.703 35.4901 214.63 35.4901C214.46 35.4901 214.3 35.2401 214.14 35.1101C214.28 34.9501 214.39 34.7001 214.56 34.6401C215.38 34.4001 215.56 33.8101 215.56 33.0701C215.56 30.5201 215.56 27.9601 215.56 25.4001C215.56 23.9901 215.04 23.4001 214.05 23.4001C213.454 23.4239 212.886 23.6629 212.452 24.0729C212.018 24.4828 211.747 25.036 211.69 25.6301C211.69 28.1001 211.69 30.5801 211.69 33.0601C211.69 33.7901 211.78 34.3901 212.61 34.6501C212.79 34.7101 212.88 35.0401 213.02 35.2401C212.82 35.3401 212.62 35.5201 212.43 35.5201C210.17 35.5201 208 35.5101 205.45 35.5101Z" fill="white"/>
<path d="M95.2399 28.79C94.8799 30.84 94.4899 32.84 94.1799 34.85C94.0599 35.65 93.5199 35.51 93.0199 35.51H79.3599C78.6399 35.51 77.9199 35.51 77.1999 35.51C77.0199 35.51 76.8499 35.3 76.6799 35.18C76.8399 35.01 76.9599 34.74 77.1499 34.68C79.1499 34.08 79.2999 33.91 79.2999 31.88V18.68C79.2999 16.79 79.0699 16.51 77.2999 16.02C77.0828 15.9196 76.8835 15.7845 76.7099 15.62C76.9399 15.48 77.1699 15.23 77.3999 15.23C80.3999 15.23 83.4799 15.23 86.5099 15.23C86.7399 15.23 86.9599 15.43 87.1799 15.54C86.9599 15.7 86.7599 15.95 86.5199 16C84.3799 16.44 84.1699 16.67 84.1699 18.84C84.1699 23.4 84.1699 27.9566 84.1699 32.51C84.1699 34 84.4899 34.34 85.9599 34.44C89.9099 34.71 92.2699 33.29 93.9599 29.65C94.1399 29.16 94.1799 28.37 95.2399 28.79Z" fill="white"/>
<path d="M194.27 15.2099C194.04 15.6099 193.97 15.9199 193.84 15.9499C192.23 16.2299 191.74 17.5099 191.24 18.7899C189.66 22.8765 188.077 26.9632 186.49 31.0499C185.98 32.3499 185.49 33.6699 184.96 34.9499C184.721 35.36 184.428 35.7366 184.09 36.0699C183.783 35.7683 183.511 35.4328 183.28 35.0699C180.95 29.6999 178.65 24.3099 176.28 18.9299C175.75 17.6999 175.38 16.3099 173.75 15.9999C173.64 15.9999 173.58 15.7199 173.49 15.5599C173.68 15.4599 173.86 15.2799 174.05 15.2799C175.41 15.2799 176.77 15.2799 178.13 15.2799C179.68 15.2799 181.24 15.2799 182.8 15.2799C183.05 15.2799 183.3 15.4899 183.56 15.5999C183.33 15.7499 183.12 15.9899 182.88 16.0299C180.88 16.3799 180.63 16.6999 181.43 18.5899C182.87 21.9599 184.32 25.3199 185.84 28.8499C186.05 28.3999 186.21 28.1099 186.33 27.7999C187.51 24.7499 188.71 21.7099 189.84 18.6499C190.53 16.7799 190.26 16.3899 188.38 16.0499C188.117 15.9575 187.868 15.8296 187.64 15.6699C187.91 15.5399 188.18 15.2899 188.45 15.2799C190.35 15.1999 192.21 15.2099 194.27 15.2099Z" fill="white"/>
<path d="M248 34.7999L242.24 35.7999L242.11 34.2099C241.42 34.6399 240.85 35.0699 240.23 35.3799C236.95 37.0399 233.92 35.1999 233.9 31.5599C233.9 29.1999 233.9 26.8499 233.9 24.4899C233.9 23.6299 233.9 22.7999 232.79 22.4899C232.63 22.4899 232.53 22.1699 232.4 21.9999C232.62 21.8699 232.83 21.6499 233.05 21.6499C234.68 21.6499 236.31 21.6499 238.1 21.6499V23.7299C238.1 26.4799 238.1 29.2399 238.1 31.9899C238.1 33.3199 238.75 33.9899 239.85 33.9299C240.42 33.9112 240.965 33.691 241.388 33.3083C241.811 32.9256 242.084 32.4053 242.16 31.8399C242.16 29.3699 242.16 26.8899 242.16 24.4199C242.16 23.4199 241.97 22.5899 240.74 22.4199C240.58 22.4199 240.45 22.1399 240.3 21.9899C240.47 21.8699 240.64 21.6299 240.81 21.6299C242.59 21.6299 244.38 21.6299 246.27 21.6299C246.27 24.8799 246.27 27.9799 246.27 31.0899C246.27 32.4199 245.99 33.9199 247.91 34.2799C247.91 34.2799 247.98 34.4099 247.99 34.4899C248.006 34.5924 248.009 34.6965 248 34.7999Z" fill="white"/>
<path d="M126.63 34.3598C125.155 34.9658 123.637 35.4638 122.09 35.8498C121.397 35.9662 120.684 35.8473 120.066 35.512C119.448 35.1768 118.96 34.6444 118.68 33.9998C118.366 33.2475 118.327 32.409 118.568 31.6305C118.809 30.852 119.316 30.1829 120 29.7398C121.794 28.7983 123.656 27.9927 125.57 27.3298C126.32 27.0598 126.57 26.7598 126.57 25.9998C126.57 25.5598 126.57 25.1198 126.57 24.6798C126.584 24.2552 126.487 23.8342 126.286 23.4597C126.086 23.0851 125.79 22.7702 125.428 22.5468C125.067 22.3235 124.653 22.1996 124.228 22.1879C123.803 22.1761 123.383 22.2768 123.01 22.4798C122.3 22.7798 122.01 23.2398 122.55 23.9698C122.883 24.2962 123.077 24.7393 123.09 25.2056C123.103 25.672 122.934 26.1252 122.62 26.4698C122.313 26.7955 121.906 27.0089 121.464 27.076C121.021 27.1431 120.569 27.0599 120.18 26.8398C119.96 26.7605 119.758 26.6371 119.588 26.4772C119.417 26.3174 119.281 26.1244 119.187 25.91C119.093 25.6957 119.044 25.4645 119.043 25.2306C119.042 24.9968 119.089 24.7651 119.18 24.5498C119.48 23.6288 120.065 22.8268 120.85 22.2598C122.092 21.5588 123.494 21.1904 124.92 21.1904C126.346 21.1904 127.748 21.5588 128.99 22.2598C129.552 22.5768 130.01 23.0493 130.31 23.6205C130.61 24.1917 130.738 24.8373 130.68 25.4798C130.68 27.7598 130.68 30.0298 130.68 32.3098C130.68 33.0098 130.31 34.2298 131.87 33.6498C131.95 33.6498 132.19 33.7898 132.2 33.8898C132.245 34.1017 132.209 34.3228 132.1 34.5098C131.792 34.958 131.376 35.322 130.892 35.5686C130.407 35.8153 129.868 35.9366 129.324 35.9217C128.78 35.9068 128.249 35.7561 127.778 35.4833C127.308 35.2105 126.913 34.8242 126.63 34.3598ZM126.5 28.2698C124.15 28.6598 122.72 30.2698 122.94 32.1098C123.04 32.9898 123.44 33.6398 124.4 33.6998C124.878 33.695 125.341 33.5326 125.717 33.2379C126.093 32.9432 126.361 32.5326 126.48 32.0698C126.53 30.8098 126.5 29.5498 126.5 28.2698Z" fill="white"/>
<path d="M109.59 15.27H115.59V16.69C115.59 22 115.59 27.31 115.59 32.61C115.59 33.49 115.64 34.3 116.66 34.61C116.751 34.6637 116.827 34.7395 116.882 34.8303C116.936 34.9212 116.966 35.0243 116.97 35.13C116.918 35.2227 116.844 35.3017 116.756 35.3607C116.667 35.4198 116.566 35.4572 116.46 35.47C114.46 35.47 112.46 35.47 110.46 35.47C110.26 35.47 110.05 35.22 109.85 35.08C109.98 34.91 110.07 34.65 110.24 34.59C111.14 34.27 111.24 33.59 111.24 32.77V17.77C111.24 16.98 111.16 16.26 110.24 15.97C110.1 16 110 15.7 109.59 15.27Z" fill="white"/>
<path d="M204.56 32.2C202.33 36.26 197.77 37.15 194.51 34.2C193.843 33.5156 193.325 32.7 192.989 31.8049C192.653 30.9097 192.507 29.9546 192.56 29C192.456 27.9643 192.567 26.9184 192.886 25.9274C193.204 24.9365 193.723 24.0217 194.41 23.24C195.219 22.3394 196.284 21.7088 197.463 21.4334C198.641 21.158 199.876 21.251 201 21.7C203.32 22.7 204.58 24.98 204.45 28.13H196.81C197.05 29.23 197.16 30.18 197.45 31.07C198.45 33.97 200.91 34.52 203.25 32.42C203.602 32.1691 203.981 31.9578 204.38 31.79L204.56 32.2ZM200.82 26.9C200.776 25.781 200.621 24.669 200.36 23.58C200.23 23.2737 200.031 23.002 199.777 22.7866C199.524 22.5713 199.223 22.4183 198.9 22.34C198.587 22.3712 198.287 22.4787 198.025 22.653C197.764 22.8274 197.549 23.0633 197.4 23.34C197.062 24.4905 196.824 25.6683 196.69 26.86L200.82 26.9Z" fill="white"/>
<path d="M108.75 28.1602H101.12C101.023 29.7495 101.483 31.323 102.42 32.6102C103.6 34.1302 105.67 34.0101 107.36 32.4201C107.77 32.0401 108.13 31.3401 108.76 32.1701C106.5 36.2302 102.13 37.1702 98.76 34.2702C95.39 31.3702 96.24 23.9402 100.26 21.9102C101.014 21.5048 101.853 21.2809 102.709 21.2562C103.565 21.2315 104.415 21.4066 105.191 21.7677C105.968 22.1287 106.649 22.6658 107.182 23.3363C107.715 24.0067 108.084 24.7921 108.26 25.6302C108.53 26.3902 108.6 27.1802 108.75 28.1602ZM105.05 26.9602C104.993 25.8134 104.825 24.6748 104.55 23.5602C104.417 23.2548 104.213 22.9852 103.956 22.7732C103.699 22.5612 103.395 22.4129 103.07 22.3402C102.756 22.3846 102.457 22.503 102.198 22.6855C101.939 22.8681 101.727 23.1096 101.58 23.3902C101.266 24.3302 101.088 25.31 101.05 26.3002C101.05 26.5002 101.43 26.9102 101.65 26.9302C102.71 27.0002 103.78 27.0002 105.05 27.0002V26.9602Z" fill="white"/>
<path d="M274 32.1602C271.77 36.2302 267.41 37.1602 264.05 34.2802C260.69 31.4002 261.52 23.8602 265.6 21.8602C266.347 21.4587 267.176 21.2344 268.024 21.2046C268.871 21.1748 269.714 21.3403 270.487 21.6882C271.261 22.0362 271.944 22.5574 272.483 23.2114C273.023 23.8655 273.405 24.6349 273.6 25.4602C273.81 26.2902 273.89 27.1602 274.05 28.1602H266.42C266.334 29.667 266.737 31.1613 267.57 32.4202C268.75 34.1102 270.87 34.0902 272.65 32.4202C273 32.0002 273.36 31.3502 274 32.1602ZM270.28 27.0002C270.206 25.8518 270.039 24.7113 269.78 23.5902C269.664 23.2971 269.48 23.0357 269.244 22.8271C269.008 22.6186 268.725 22.4689 268.42 22.3902C268.092 22.4205 267.776 22.5267 267.497 22.7002C267.218 22.8738 266.982 23.11 266.81 23.3902C266.482 24.3267 266.3 25.3082 266.27 26.3002C266.27 26.4902 266.65 26.9002 266.87 26.9202C267.93 27.0002 269 27.0002 270.28 27.0002Z" fill="white"/>
<path d="M248.88 35.5098C249.19 35.0898 249.31 34.7298 249.52 34.6698C249.857 34.6043 250.158 34.4152 250.363 34.1396C250.568 33.8641 250.664 33.5218 250.63 33.1798C250.63 30.1798 250.69 27.1199 250.7 24.0898C250.754 23.7081 250.655 23.3204 250.425 23.0113C250.195 22.7022 249.851 22.4967 249.47 22.4399C249.32 22.4399 249.22 22.1298 249.09 21.9598C249.26 21.8398 249.43 21.6298 249.61 21.6298C251.32 21.6298 253.03 21.6298 254.81 21.6298V23.7398C255.44 23.1398 255.89 22.6698 256.39 22.2498C256.844 21.7948 257.421 21.483 258.05 21.3532C258.68 21.2235 259.333 21.2814 259.93 21.5199C260.378 21.6569 260.759 21.9536 261.003 22.3536C261.246 22.7537 261.334 23.2292 261.25 23.6899C261.077 24.4297 260.631 25.0765 260 25.4998C259.17 25.9998 258.35 25.4998 257.68 24.8198C257.34 24.4498 256.56 23.9299 256.43 24.0299C255.821 24.4406 255.356 25.0316 255.1 25.7198C254.933 26.9423 254.876 28.1772 254.93 29.4098C254.93 30.5698 254.93 31.7299 254.93 32.8799C254.902 33.0893 254.917 33.3022 254.973 33.5059C255.03 33.7095 255.127 33.8996 255.258 34.0649C255.39 34.2302 255.554 34.3672 255.739 34.4677C255.925 34.5682 256.129 34.6302 256.34 34.6499C256.59 34.6499 256.8 34.9398 257.02 35.0998C256.79 35.2398 256.55 35.4898 256.31 35.4998C254 35.5298 251.59 35.5098 248.88 35.5098Z" fill="white"/>
<path d="M223.9 23.0001L222.19 22.8801C222.371 22.4566 222.592 22.0515 222.85 21.6701C224.18 20.1401 225.54 18.6701 226.9 17.1301C227.153 16.9129 227.431 16.7281 227.73 16.5801C227.895 16.8552 228.014 17.156 228.08 17.4701C228.08 18.7801 228.08 20.0901 228.08 21.5401H230.87L230.95 22.9201H228.23C228.164 23.1763 228.118 23.437 228.09 23.7001C228.09 26.3801 228.03 29.0601 228.09 31.7001C228.236 32.3603 228.497 32.9898 228.86 33.5601L230.6 32.5601C230.84 32.4301 231.09 32.3201 231.34 32.2001C231.34 32.4701 231.49 32.7801 231.4 33.0101C231.016 33.9417 230.333 34.7189 229.458 35.2188C228.584 35.7187 227.567 35.9127 226.57 35.7701C226.178 35.744 225.795 35.639 225.444 35.4615C225.094 35.2839 224.783 35.0374 224.53 34.7368C224.277 34.4361 224.087 34.0875 223.972 33.7117C223.857 33.336 223.819 32.9409 223.86 32.5501C223.86 29.8001 223.86 27.0401 223.86 24.2901L223.9 23.0001Z" fill="white"/>
<path d="M275.49 35.8902V31.0002L275.79 30.8102C276.066 31.1093 276.298 31.4459 276.48 31.8102C276.723 32.66 277.232 33.4097 277.932 33.9495C278.632 34.4893 279.486 34.7909 280.37 34.8102C281.31 34.8102 282.14 34.5802 282.44 33.5502C282.591 33.1097 282.572 32.6289 282.387 32.2017C282.202 31.7745 281.864 31.4317 281.44 31.2402C280.29 30.6202 279.07 30.0902 277.94 29.4302C275.02 27.7502 274.57 24.3002 277 22.2702C277.657 21.7762 278.424 21.4475 279.235 21.3118C280.046 21.176 280.878 21.2372 281.66 21.4902C282.66 21.7102 283.66 22.3802 284.76 20.9302V25.6302L284.5 25.8102C284.235 25.5192 283.997 25.2045 283.79 24.8702C283.552 24.2092 283.136 23.6273 282.586 23.1894C282.037 22.7515 281.377 22.4748 280.68 22.3902C280.265 22.3105 279.836 22.3816 279.469 22.5906C279.103 22.7997 278.823 23.1329 278.68 23.5302C278.546 23.906 278.556 24.3179 278.708 24.6869C278.859 25.056 279.141 25.3562 279.5 25.5302C280.71 26.2302 281.99 26.8002 283.2 27.5302C283.822 27.8362 284.362 28.2855 284.777 28.8411C285.191 29.3967 285.468 30.0427 285.584 30.726C285.7 31.4094 285.653 32.1105 285.445 32.7719C285.237 33.4332 284.876 34.0358 284.39 34.5302C283.1 35.9702 281.39 36.0702 279.64 35.8302C279.168 35.7461 278.706 35.6155 278.26 35.4402C277.47 35.1502 276.73 34.8802 276.17 35.8302C276.06 35.9102 275.75 35.8602 275.49 35.8902Z" fill="white"/>
</svg>
