<?xml version="1.0" encoding="utf-8"?>
<!-- Generator: Adobe Illustrator 24.3.0, SVG Export Plug-In . SVG Version: 6.00 Build 0)  -->
<svg version="1.1" id="Camada_1" xmlns="http://www.w3.org/2000/svg" xmlns:xlink="http://www.w3.org/1999/xlink" x="0px" y="0px"
	 viewBox="0 0 500 65.7" style="enable-background:new 0 0 500 65.7;" xml:space="preserve">
<style type="text/css">
	.st0{fill:#22293F;}
	.st1{fill:url(#SVGID_1_);}
	.st2{fill:url(#SVGID_2_);}
</style>
<g>
	<g>
		<path class="st0" d="M125.6,14.4h10.5l5.8,29.4l7.2-29.4h10.8l6.9,29.4l5.9-29.4h10.6l-10.5,40.3h-11.9l-6.4-26.5l-6.7,26.5h-11.9
			L125.6,14.4z"/>
		<path class="st0" d="M202.4,55.2c-9.4,0-16.2-6.3-16.2-16.5s6.7-16.5,16.2-16.5c9.4,0,16,6.2,16,16c0,0.9-0.1,1.9-0.2,2.9H196
			c0.3,4.2,2.9,6.1,6.1,6.1c2.8,0,4.3-1.4,5.1-3.1h10.5C216.1,50.4,210.4,55.2,202.4,55.2z M196,35.6h12.3c0-3.5-2.8-5.5-6-5.5
			C199.1,30.1,196.6,32,196,35.6z"/>
		<path class="st0" d="M235.7,22.2c4.8,0,8.2,2.2,9.9,5v-4.5h9.8v32.1h-9.8v-4.5c-1.8,2.8-5.2,5-9.9,5c-7.8,0-14.1-6.4-14.1-16.5
			S227.9,22.2,235.7,22.2z M238.6,30.8c-3.7,0-7,2.8-7,7.9s3.3,8,7,8c3.7,0,7-2.8,7-7.9S242.4,30.8,238.6,30.8z"/>
		<path class="st0" d="M262.6,12.2h9.8v42.5h-9.8V12.2z"/>
		<path class="st0" d="M281.1,30.8h-3.9v-8.2h3.9v-7.8h9.8v7.8h6.4v8.2h-6.4v12.9c0,1.9,0.8,2.7,3,2.7h3.5v8.3h-5
			c-6.7,0-11.3-2.8-11.3-11.1V30.8z"/>
		<path class="st0" d="M302.8,12.2h9.8V27c2-2.8,5.5-4.7,9.9-4.7c7.3,0,12.2,5.1,12.2,13.7v18.7H325V37.3c0-4.4-2.4-6.8-6.1-6.8
			s-6.1,2.4-6.1,6.8v17.4h-9.8V12.2z"/>
		<path class="st0" d="M342.2,14.8h6.6v25.5c0,6.2,3.5,9.1,9,9.1c5.6,0,9.1-2.9,9.1-9.1V14.8h6.5v25.3c0,10.2-7.4,15-15.7,15
			c-8.4,0-15.5-4.8-15.5-15V14.8z"/>
		<path class="st0" d="M404.4,37c0-5.8-3.2-8.8-7.9-8.8c-4.8,0-8,3-8,8.8v17.7h-6.5V23.1h6.5v3.6c2.1-2.6,5.6-4.1,9.4-4.1
			c7.4,0,13,4.7,13,13.5v18.7h-6.5V37z"/>
		<path class="st0" d="M418.4,14.7c0-2.4,1.8-4.2,4.2-4.2c2.3,0,4.1,1.8,4.1,4.2s-1.8,4.2-4.1,4.2C420.2,18.9,418.4,17,418.4,14.7z
			 M419.2,23.1h6.5v31.7h-6.5V23.1z"/>
		<path class="st0" d="M448.1,55.2c-9,0-15.9-6.4-15.9-16.4s7.1-16.3,16.1-16.3c9,0,16.1,6.4,16.1,16.3S457.2,55.2,448.1,55.2z
			 M448.1,49.5c4.9,0,9.7-3.5,9.7-10.7s-4.7-10.6-9.5-10.6c-4.9,0-9.4,3.4-9.4,10.6S443.2,49.5,448.1,49.5z"/>
		<path class="st0" d="M493.5,37c0-5.8-3.2-8.8-7.9-8.8c-4.8,0-8,3-8,8.8v17.7H471V23.1h6.5v3.6c2.1-2.6,5.6-4.1,9.4-4.1
			c7.4,0,13,4.7,13,13.5v18.7h-6.5V37z"/>
	</g>
	<g>
		<linearGradient id="SVGID_1_" gradientUnits="userSpaceOnUse" x1="0.6968" y1="32.857" x2="108.7411" y2="32.857">
			<stop  offset="0" style="stop-color:#068466"/>
			<stop  offset="1" style="stop-color:#FC9F5B"/>
		</linearGradient>
		<path class="st1" d="M110.2,29.1c-0.1-0.5-0.1-1.1-0.2-1.6c-0.7-4-2.1-7.9-4.1-11.3c-5.2-8.8-14.4-15-25.1-16.1
			c-9.9-1-19,2.5-25.6,8.6c0,0,0,0,0,0c-6.6-6.1-15.7-9.6-25.6-8.6C14.2,1.7,1.8,13.9,0.2,29.2C-1.9,49,13.5,65.7,32.9,65.7
			c8.6,0,16.5-3.3,22.3-8.8c6.1,5.7,14,8.8,22.3,8.8C96.9,65.7,112.4,48.9,110.2,29.1z M77.5,59.6c-6.8,0-13.2-2.6-18.2-7.2
			c0,0,0,0,0,0c-1.6-1.4-2.9-3.1-4.1-4.9c-1.2,1.8-2.5,3.4-4.1,4.9c-4.8,4.5-11.3,7.3-18.5,7.2C18.8,59.4,7.1,48.4,6.2,34.6
			C5.2,19.1,17.5,6.1,32.9,6.1c7,0,13.5,2.7,18.2,7.2c0,0,0,0,0,0c-1.8,2.4-3.3,5.1-4.4,8l-0.3,0.8c-0.6,1.6-0.8,3-1.3,4.9
			l-2.7,10.3L40.9,31l-2.3-9.7h-6.8l-4.1,16.1l-4.1-16.1H17l6.5,25.4H32l3.1-12.4l3.1,12.4h8.4l2.2-8.4l1.5-5.6l0.5-2.1l0.5-1.8
			l0.7-2.8c1.8-6.8,6-12.8,12.1-16.4c0.4-0.2,0.7-0.4,1.1-0.6c3-1.5,6.3-2.5,9.8-2.8h0c1.7-0.2,3.5-0.2,5.3,0
			c12.3,1.3,22.4,11.2,23.7,23.5C105.9,45.9,93.2,59.6,77.5,59.6z"/>
		<linearGradient id="SVGID_2_" gradientUnits="userSpaceOnUse" x1="0.6968" y1="34.0512" x2="108.7411" y2="34.0512">
			<stop  offset="0" style="stop-color:#068466"/>
			<stop  offset="1" style="stop-color:#FC9F5B"/>
		</linearGradient>
		<path class="st2" d="M74.5,46.7c-4.9-1.5-7.9-6.3-7.9-11.4V20.8h6.4l0,14.5c0,2.3,1.3,4.4,3.5,5.2c3.7,1.3,7.2-1.5,7.2-5V20.8H90
			v14.7C90,43.2,82.5,49.2,74.5,46.7z"/>
	</g>
</g>
</svg>
