<svg width="19" height="20" viewBox="0 0 19 20" fill="none" xmlns="http://www.w3.org/2000/svg">
<g clip-path="url(#clip0_104_3005)">
<path d="M15.3774 7.73184H8.55932C7.72254 7.73184 7.04419 8.41019 7.04419 9.24697V16.065C7.04419 16.9018 7.72254 17.5802 8.55932 17.5802H15.3774C16.2142 17.5802 16.8925 16.9018 16.8925 16.065V9.24697C16.8925 8.41019 16.2142 7.73184 15.3774 7.73184Z" stroke="white" stroke-width="2.27269" stroke-linecap="round" stroke-linejoin="round"/>
<path d="M4.01244 12.2774H3.25487C2.85304 12.2774 2.46766 12.1178 2.18352 11.8337C1.89938 11.5495 1.73975 11.1641 1.73975 10.7623V3.94423C1.73975 3.5424 1.89938 3.15702 2.18352 2.87288C2.46766 2.58874 2.85304 2.42911 3.25487 2.42911H10.0729C10.4748 2.42911 10.8602 2.58874 11.1443 2.87288C11.4284 3.15702 11.5881 3.5424 11.5881 3.94423V4.7018" stroke="white" stroke-width="2.27269" stroke-linecap="round" stroke-linejoin="round"/>
</g>
<defs>
<clipPath id="clip0_104_3005">
<rect width="18.1815" height="18.1815" fill="white" transform="translate(0.226074 0.913788)"/>
</clipPath>
</defs>
</svg>
