<svg width="19" height="20" viewBox="0 0 19 20" fill="none" xmlns="http://www.w3.org/2000/svg">
<path fill-rule="evenodd" clip-rule="evenodd" d="M3.4164 3.407C3.11672 1.84864 4.31546 0.410156 5.87382 0.410156C7.25237 0.410156 8.39117 1.54896 8.39117 2.92751V6.04423C8.75079 6.04423 9.11041 5.98429 9.47003 5.98429C9.82965 5.98429 10.1293 5.98429 10.489 6.04423V2.92751C10.489 1.54896 11.6278 0.410156 13.0063 0.410156C14.5647 0.410156 15.7634 1.84864 15.5237 3.407L14.8644 7.06315C17.2019 8.08208 19 9.88019 19 12.0979V13.4764C19 15.3344 17.8013 16.8928 16.0631 17.9117C14.3249 18.9906 12.0473 19.59 9.47003 19.59C6.89274 19.59 4.61514 18.9906 2.87697 17.9117C1.19874 16.8928 0 15.3344 0 13.4764V12.0979C0 9.88019 1.73817 8.08208 4.07571 7.06315L3.4164 3.407ZM13.9653 7.54265L14.7445 3.22719C14.9243 2.14833 14.1451 1.1294 13.0063 1.1294C12.0473 1.1294 11.2681 1.90858 11.2681 2.86757V6.82341C11.0284 6.76347 10.7287 6.76347 10.489 6.76347C10.1293 6.76347 9.82965 6.70353 9.47003 6.70353C9.11041 6.70353 8.75079 6.70353 8.39117 6.76347C8.15142 6.76347 7.85173 6.82341 7.61199 6.82341V2.92751C7.61199 1.96852 6.83281 1.18934 5.87382 1.18934C4.79495 1.18934 3.95584 2.20826 4.19558 3.28713L4.97476 7.60259C2.45741 8.56158 0.77918 10.2398 0.77918 12.1578V13.5363C0.77918 16.4732 4.67508 18.8707 9.47003 18.8707C14.265 18.8707 18.1609 16.4732 18.1609 13.5363V12.1578C18.2208 10.1799 16.5426 8.50164 13.9653 7.54265Z" fill="#6239F2"/>
<path d="M18.2215 13.4762C18.2215 16.4131 14.3256 18.8106 9.5307 18.8106C4.73574 18.8106 0.839844 16.4131 0.839844 13.4762V12.0977H18.2815V13.4762H18.2215Z" fill="#D3D4EA"/>
<path fill-rule="evenodd" clip-rule="evenodd" d="M3.62938 3.05883C3.3811 2 5.09491 1 6.21215 1C7.20526 1 8.01216 1.76471 8.01216 2.70588V6.58823C8.63285 6.52941 9.25354 6.47059 9.93631 6.47059C10.557 6.47059 10.3776 6.32353 10.9984 6.38235V2.5C10.9984 1.55882 12.0052 1 12.9984 1C14.1156 1 15.5846 2 15.3984 3.05883L14.5915 7.29411C17.1984 8.23529 18.3183 9.88232 18.3183 11.7647C18.3183 14.647 14.9639 17 9.99837 17C5.03284 17 0.683594 14.647 0.683594 11.7647C0.683594 9.88232 1.89145 8.23529 4.49835 7.29411L3.62938 3.05883Z" fill="#6239F2"/>
<path d="M7.07423 11.7383C7.07423 12.5175 6.65467 13.1768 6.11524 13.1768C5.5758 13.1768 5.15625 12.5175 5.15625 11.7383C5.15625 10.9591 5.5758 10.2998 6.11524 10.2998C6.65467 10.2998 7.07423 10.9591 7.07423 11.7383Z" fill="white"/>
<path d="M13.7227 11.7383C13.7227 12.5175 13.3032 13.1768 12.7637 13.1768C12.2243 13.1768 11.8047 12.5175 11.8047 11.7383C11.8047 10.9591 12.2243 10.2998 12.7637 10.2998C13.3032 10.2998 13.7227 10.9591 13.7227 11.7383Z" fill="white"/>
</svg>
