<svg width="234" height="32" viewBox="0 0 234 32" fill="none" xmlns="http://www.w3.org/2000/svg">
<g clip-path="url(#clip0_181_733)">
<path d="M78.28 24.6201C71.51 24.6201 67.5 20.1601 67.5 12.6201C67.5 5.08012 71.5 0.620117 78.28 0.620117C83.87 0.620117 87.6 4.04012 88.36 9.79012H84.19C83.56 6.22012 81.38 4.10012 78.28 4.10012C74.36 4.10012 72.02 7.29011 72.02 12.6401C72.02 17.9901 74.36 21.1701 78.28 21.1701C81.41 21.1701 83.56 19.0201 84.19 15.3901H88.36C87.6 21.1801 83.9 24.6201 78.28 24.6201Z" fill="white"/>
<path d="M106.9 8.46991V24.3399H102.73V18.8799H102.66C102.66 22.5099 100.55 24.6599 97.0101 24.6599C93.0101 24.6599 90.6801 21.5899 90.6801 16.4099C90.6801 11.2299 93.0201 8.15991 97.0101 8.15991C100.55 8.15991 102.66 10.3099 102.66 13.9099H102.73V8.46991H106.9ZM102.9 16.4099C102.9 13.4699 101.41 11.4099 98.9001 11.4099C96.3901 11.4099 94.9001 13.2799 94.9001 16.4099C94.9001 19.5399 96.3801 21.3399 98.9001 21.3399C101.42 21.3399 102.9 19.3199 102.9 16.4099Z" fill="white"/>
<path d="M109.99 19.1899H113.9C113.9 20.9599 115.13 22.0099 117.22 22.0099C119.31 22.0099 120.41 21.2499 120.41 19.9199C120.41 18.2399 118.55 17.9199 116.41 17.5799C113.66 17.1399 110.41 16.5799 110.41 12.9599C110.41 9.95991 112.94 8.15991 117.21 8.15991C121.48 8.15991 123.98 10.0899 123.98 13.3699H120.09C120.09 11.6999 119.04 10.7499 117.21 10.7499C115.38 10.7499 114.43 11.4399 114.43 12.6099C114.43 14.0399 116.17 14.3199 118.19 14.6699C121 15.1399 124.42 15.6699 124.42 19.4399C124.42 22.6999 121.73 24.6599 117.21 24.6599C112.69 24.6599 109.99 22.6199 109.99 19.1899Z" fill="white"/>
<path d="M143.82 16.4099C143.82 21.5899 141.45 24.6599 137.47 24.6599C133.92 24.6599 131.81 22.5099 131.81 18.8799H131.74V31.6199H127.57V8.46991H131.74V13.9099H131.81C131.81 10.3099 133.92 8.15991 137.47 8.15991C141.45 8.15991 143.82 11.2199 143.82 16.4099ZM139.55 16.4099C139.55 13.3099 138.07 11.4799 135.55 11.4799C133.03 11.4799 131.55 13.4799 131.55 16.4099C131.55 19.3399 133.04 21.3399 135.55 21.3399C138.06 21.3399 139.55 19.5099 139.55 16.4099Z" fill="white"/>
<path d="M161.9 16.8799H150.3C150.46 19.7899 151.85 21.4999 154.1 21.4999C154.956 21.5576 155.803 21.3054 156.488 20.7894C157.173 20.2735 157.649 19.5282 157.83 18.6899H161.83C161.27 22.4499 158.36 24.6899 154.06 24.6899C149.12 24.6899 146.22 21.6199 146.22 16.4399C146.22 11.2599 149.12 8.18994 154.06 8.18994C159 8.18994 161.83 11.1899 161.83 16.4399L161.9 16.8799ZM150.36 15.4599H157.83C157.57 12.7999 156.21 11.2899 154.13 11.2899C152.05 11.2899 150.62 12.7999 150.33 15.4599H150.36Z" fill="white"/>
<path d="M176.58 8.62003L175.38 12.35C174.696 11.985 173.935 11.7896 173.16 11.78C170.73 11.78 169.27 13.78 169.27 17.13V24.3H165.1V8.47003H169.27V15.02H169.34C169.34 10.69 171.14 8.16003 174.14 8.16003C174.977 8.13512 175.81 8.29206 176.58 8.62003Z" fill="white"/>
<path d="M196.53 8.27995C196.53 12.8999 193.33 15.6199 187.9 15.6199H183.6V24.34H179.23V0.949951H187.9C193.33 0.949951 196.53 3.66995 196.53 8.27995ZM192.01 8.27995C192.063 7.75323 192 7.22121 191.824 6.72181C191.649 6.2224 191.365 5.7679 190.993 5.39069C190.622 5.01348 190.172 4.72285 189.675 4.5395C189.178 4.35615 188.647 4.2846 188.12 4.32995H183.6V12.24H188.12C188.648 12.2837 189.179 12.2107 189.676 12.0262C190.172 11.8416 190.622 11.55 190.994 11.1721C191.365 10.7941 191.648 10.3391 191.824 9.83926C192 9.33944 192.063 8.80707 192.01 8.27995Z" fill="white"/>
<path d="M214.36 8.46991V24.3399H210.19V18.8799H210.12C210.12 22.5099 208 24.6599 204.46 24.6599C200.46 24.6599 198.14 21.5899 198.14 16.4099C198.14 11.2299 200.48 8.15991 204.46 8.15991C208 8.15991 210.12 10.3099 210.12 13.9099H210.19V8.46991H214.36ZM210.41 16.4099C210.41 13.4699 208.92 11.4099 206.41 11.4099C203.9 11.4099 202.41 13.2799 202.41 16.4099C202.41 19.5399 203.89 21.3399 206.41 21.3399C208.93 21.3399 210.41 19.3199 210.41 16.4099Z" fill="white"/>
<path d="M233.9 0V24.34H229.73V18.88H229.66C229.66 22.51 227.54 24.66 224 24.66C220 24.66 217.68 21.59 217.68 16.41C217.68 11.23 220.02 8.16 224 8.16C227.54 8.16 229.66 10.31 229.66 13.91H229.73V0H233.9ZM229.95 16.41C229.95 13.47 228.46 11.41 225.95 11.41C223.44 11.41 221.95 13.28 221.95 16.41C221.95 19.54 223.43 21.34 225.95 21.34C228.47 21.34 229.95 19.32 229.95 16.41Z" fill="white"/>
<path d="M29.8 31.6201C29.8 21.6201 35.54 15.8101 45.24 15.8101C53.48 15.8101 58.8 20.6301 59.59 28.7501H51.3101C50.8101 24.8801 48.52 22.5501 45.24 22.5501C41.24 22.5501 38.79 25.9201 38.79 31.6201H29.8Z" fill="white"/>
<path d="M20.8 31.6201C20.8 25.9201 18.39 22.5501 14.35 22.5501C11.07 22.5501 8.78 24.8801 8.28 28.7501H0C0.79 20.6301 6.11 15.8101 14.35 15.8101C24.05 15.8101 29.79 21.6701 29.79 31.6201H20.8Z" fill="white"/>
<path d="M29.79 0C29.79 9.94 24.05 15.81 14.35 15.81C6.11 15.81 0.79 10.98 0 2.87H8.28C8.78 6.74 11.07 9.07 14.35 9.07C18.35 9.07 20.8 5.7 20.8 0H29.79Z" fill="white"/>
<path d="M38.79 0C38.79 5.7 41.2 9.07 45.24 9.07C48.52 9.07 50.8101 6.74 51.3101 2.87H59.59C58.8 10.98 53.48 15.81 45.24 15.81C35.54 15.81 29.8 9.94 29.8 0H38.79Z" fill="white"/>
</g>
<defs>
<clipPath id="clip0_181_733">
<rect width="233.9" height="31.62" fill="white"/>
</clipPath>
</defs>
</svg>
