<svg width="50" height="50" viewBox="0 0 50 50" fill="none" xmlns="http://www.w3.org/2000/svg">
<g clip-path="url(#clip0_264_567)">
<path d="M2.17959 20.688C-0.74712 17.2092 -0.692483 13.303 2.30642 10.6923C3.62835 9.55469 5.3451 8.98338 7.08511 9.10206C8.82511 9.22074 10.4484 10.0199 11.6036 11.3265C13.6913 13.6678 14.3352 18.0969 10.3354 21.2578C12.8719 23.8625 11.629 27.2185 12.066 30.3677C13.0689 30.3677 14.0406 30.3364 15.0084 30.3677C17.8317 30.4769 19.5721 32.1588 19.6072 34.9841C19.6658 39.7975 19.6228 44.611 19.6209 49.4225C19.6067 49.5936 19.5819 49.7637 19.5467 49.9318H9.79101V40.2346H0.00797164V26.4537C0.00016707 23.5874 0.273328 22.8538 2.17959 20.688ZM9.09055 33.3002C9.06714 32.8788 9.03982 32.592 9.03982 32.3051C9.03982 30.1589 9.03982 28.0126 9.03982 25.8664C9.05377 25.3803 8.99793 24.8947 8.87398 24.4245C8.6585 23.7525 8.21211 23.1786 7.6139 22.8043C7.0157 22.43 6.30432 22.2796 5.60581 22.3797C4.0449 22.6138 2.96785 23.7865 2.95615 25.3942C2.92493 29.2321 2.95615 33.07 2.95615 36.9059C2.97933 37.0483 3.01996 37.1872 3.07712 37.3196H12.7333V46.9973H16.5869C16.6257 46.9247 16.6545 46.8473 16.6727 46.767C16.6727 42.8003 16.7039 38.8337 16.6727 34.865C16.6727 33.868 16.142 33.3861 15.1547 33.3158C14.6708 33.2807 14.1791 33.3002 13.6933 33.2983L9.09055 33.3002ZM6.66918 19.371C7.63574 19.3639 8.56089 18.9776 9.24546 18.2952C9.93004 17.6128 10.3193 16.6889 10.3295 15.7224C10.3254 14.7354 9.92948 13.7904 9.22881 13.0952C8.52815 12.4001 7.58009 12.0116 6.59308 12.0152C5.62476 12.03 4.70066 12.423 4.01844 13.1104C3.33621 13.7977 2.95003 14.7247 2.9425 15.6931C2.94246 16.1802 3.03917 16.6625 3.22705 17.112C3.41492 17.5614 3.69021 17.969 4.03692 18.3112C4.38363 18.6534 4.79485 18.9232 5.24672 19.1052C5.69858 19.2871 6.1821 19.3775 6.66918 19.371Z" fill="white"/>
<path d="M47.7581 20.7445C49.5688 22.2722 50.0351 24.237 50 26.4633C49.9317 30.6582 49.9805 34.8532 49.9805 39.0501V40.1779H40.2638V49.916H30.4222C30.3988 49.676 30.3578 49.4536 30.3578 49.2331C30.3578 44.5504 30.3305 39.8676 30.3578 35.1849C30.3793 32.147 32.1275 30.4358 35.1655 30.3714C35.7508 30.3578 36.3362 30.3714 36.9215 30.3714H38.0024C38.0024 28.7071 38.0219 27.154 38.0024 25.6009C37.9771 23.9639 38.5214 22.5473 39.6453 21.2537C37.7117 19.7728 36.6308 17.8587 36.7303 15.4101C36.758 14.5616 36.9541 13.727 37.3072 12.955C37.6602 12.1829 38.1632 11.4887 38.7868 10.9127C40.0144 9.74583 41.6428 9.09422 43.3365 9.09205C45.0302 9.08987 46.6602 9.73729 47.8908 10.901C50.681 13.535 50.6614 17.2832 47.7581 20.7445ZM40.9428 33.3001C38.9565 33.3001 37.14 33.3001 35.3235 33.3001C33.7353 33.3001 33.2963 33.7469 33.2943 35.3449C33.2865 38.922 33.2865 42.4991 33.2943 46.0762C33.2943 46.3845 33.3372 46.6927 33.3587 46.9854H37.3234V37.2551H47.0206C47.0206 33.1245 47.0792 29.0603 46.9914 25.0097C46.9562 23.4488 45.4304 22.2781 43.9085 22.3347C43.1519 22.3505 42.4294 22.6523 41.8864 23.1794C41.3433 23.7065 41.0201 24.4197 40.9818 25.1755C40.9155 26.5413 40.9506 27.9071 40.9467 29.2729C40.9389 30.5685 40.9428 31.8621 40.9428 33.3001ZM43.37 19.3709C44.337 19.3684 45.2642 18.9851 45.9507 18.3041C46.6372 17.623 47.0279 16.699 47.0382 15.732C47.0382 14.7488 46.6476 13.8059 45.9524 13.1106C45.2571 12.4154 44.3142 12.0248 43.331 12.0248C42.3627 12.0368 41.4371 12.4255 40.7505 13.1085C40.0639 13.7914 39.6703 14.715 39.6531 15.6832C39.6536 16.1698 39.7503 16.6515 39.9376 17.1006C40.125 17.5497 40.3992 17.9573 40.7447 18.3C41.0901 18.6427 41.4999 18.9138 41.9504 19.0976C42.401 19.2813 42.8834 19.3742 43.37 19.3709Z" fill="white"/>
<path d="M24.9905 22.0148C23.9017 20.1339 22.8871 18.4383 21.935 16.7076C21.6423 16.1769 21.3028 15.9467 20.7077 16.0169C20.3513 16.0462 19.993 16.0462 19.6366 16.0169C17.4025 15.8999 15.6913 14.2434 15.6406 12.0074C15.5801 9.37526 15.584 6.73925 15.6406 4.10716C15.6855 1.77749 17.4239 0.0624396 19.7692 0.0351236C23.2475 -0.0078016 26.7276 -0.0078016 30.2098 0.0351236C32.596 0.0643907 34.3072 1.80286 34.356 4.19301C34.3969 6.7295 34.393 9.26598 34.356 11.8025C34.3208 14.2843 32.5726 16.0657 30.0635 15.9896C28.8108 15.9526 28.1377 16.3428 27.5972 17.4549C26.8655 18.9612 25.9368 20.3797 24.9905 22.0148ZM24.9027 15.9955L25.1992 16.1633C25.769 13.2366 27.6811 12.7585 30.122 13.0668C30.9629 13.1722 31.4234 12.5732 31.4273 11.7205C31.4351 9.24908 31.4351 6.78218 31.4273 4.31984C31.4273 3.46524 30.9785 2.95404 30.1181 2.95404C26.7075 2.93583 23.2982 2.93583 19.8902 2.95404C19.0297 2.95404 18.5634 3.43792 18.5576 4.29447C18.5433 6.76592 18.5433 9.23282 18.5576 11.6952C18.5576 12.6161 19.02 13.061 19.937 13.0863C20.8131 13.1097 21.6931 13.0395 22.5633 13.1176C22.9497 13.1706 23.3 13.3731 23.5388 13.6814C24.0422 14.4151 24.452 15.2209 24.9027 15.9955Z" fill="white"/>
</g>
<defs>
<clipPath id="clip0_264_567">
<rect width="50" height="49.9415" fill="white"/>
</clipPath>
</defs>
</svg>
