<svg width="41" height="50" viewBox="0 0 41 50" fill="none" xmlns="http://www.w3.org/2000/svg">
<g clip-path="url(#clip0_262_484)">
<path d="M23.718 35.458C26.0437 35.458 27.9291 37.3434 27.9291 39.6691V45.7891C27.9291 48.1148 26.0437 50.0002 23.718 50.0002H17.3205C14.9947 50.0002 13.1094 48.1148 13.1094 45.7891V39.6691C13.1094 37.3434 14.9947 35.458 17.3205 35.458H23.718Z" fill="white"/>
<path d="M0.510742 20.2112C1.60945 19.802 2.56511 19.3812 3.56448 19.1091C3.90025 19.0191 4.391 19.2324 4.73273 19.436C8.24543 21.5188 11.7442 23.627 15.247 25.7273C15.5607 25.9349 15.9167 26.0726 16.2901 26.1306C15.4953 24.6899 14.7006 23.2492 13.8224 21.6714C14.5854 21.0842 15.3463 20.5107 16.2066 19.8608L20.514 27.54C21.9446 24.9835 23.3075 22.5464 24.7638 19.9469C25.4572 20.4394 26.125 20.966 26.7646 21.5246C26.9215 21.6714 26.8858 22.1804 26.7646 22.4309C26.1208 23.6759 25.4155 24.8915 24.5791 26.3811C25.0798 26.1208 25.352 25.9896 25.6063 25.8448C28.9441 23.854 32.3138 21.9122 35.596 19.8353C36.6609 19.16 37.5828 19.1013 38.6378 19.6063C39.1663 19.8588 39.6928 20.1172 40.3405 20.4304C39.9431 20.6829 39.6948 20.861 39.4286 21.0176C33.3794 24.6325 27.3295 28.2486 21.279 31.866C20.8538 32.1205 20.522 32.3515 19.9538 32.007C13.6436 28.184 7.31163 24.3982 0.985595 20.5987C0.820022 20.4785 0.661483 20.3491 0.510742 20.2112Z" fill="white"/>
<path d="M26.381 17.5117C22.4352 15.517 18.6165 15.5405 14.5972 17.4373C14.7601 15.7147 14.8634 14.1428 15.0641 12.5827C15.4753 9.40963 16.133 6.28744 17.4761 3.35122C17.8121 2.60767 18.2256 1.90049 18.7099 1.24105C19.9417 -0.409108 21.1278 -0.428684 22.306 1.27628C23.0184 2.33168 23.6045 3.46477 24.0524 4.65294C25.632 8.74604 26.1406 13.0388 26.381 17.5117Z" fill="white"/>
<path d="M41.0019 17.4334C37.0878 15.5737 33.2672 15.6129 29.5319 17.4705C29.1346 14.55 28.9101 11.6529 28.2961 8.83804C27.7001 6.0682 26.6888 3.38058 25.8921 0.765381C32.5122 1.94966 39.9469 8.83217 41.0019 17.4334Z" fill="white"/>
<path d="M15.4475 0.695068C12.7395 5.94895 12.0143 11.61 11.6169 17.504C7.78503 15.4982 3.91271 15.4088 0 17.2358C0.792741 9.46264 7.98305 2.00854 15.4475 0.695068Z" fill="white"/>
</g>
<defs>
<clipPath id="clip0_262_484">
<rect width="41" height="50" fill="white"/>
</clipPath>
</defs>
</svg>
