<svg width="50" height="50" viewBox="0 0 50 50" fill="none" xmlns="http://www.w3.org/2000/svg">
<g clip-path="url(#clip0_264_571)">
<path d="M47.7313 11.104C47.9299 11.5041 47.6787 11.8422 47.4254 12.0296C46.56 12.6803 45.8045 13.4842 44.9334 14.136C44.7744 14.257 44.7808 14.2994 44.9295 14.3674C45.2353 14.5057 45.5449 14.6432 45.8611 14.7536C46.6047 15.004 47.3402 15.3237 48.1069 15.4701C48.5643 15.5605 48.6825 15.7657 48.735 16.1411C48.7773 16.435 48.8691 16.6475 48.5239 16.9326C47.8752 17.4728 47.2422 18.0416 46.5954 18.5913C46.4119 18.749 46.2241 18.9055 46.0558 19.08C46.0246 19.1042 46.0002 19.1362 45.9851 19.1728C45.97 19.2093 45.9648 19.2492 45.97 19.2884C45.9751 19.3277 45.9905 19.3648 46.0145 19.3963C46.0385 19.4277 46.0703 19.4523 46.1068 19.4676C46.2141 19.5232 46.3268 19.5675 46.4432 19.5998C47.4499 19.9334 48.4554 20.2612 49.4579 20.5936C49.4981 20.6063 49.5353 20.6273 49.5668 20.6553C49.5984 20.6833 49.6238 20.7177 49.6412 20.7561C49.7185 21.0052 49.7693 21.2618 49.7928 21.5215C49.8077 21.7572 49.615 21.859 49.4334 22.0063C48.0932 23.0911 46.8328 24.2674 45.5289 25.3848C44.471 26.2884 43.4168 27.2111 42.399 28.1663C41.6019 28.9208 40.717 29.5634 39.9611 30.3654C39.452 30.9077 38.7764 31.2921 38.2128 31.7895C37.3242 32.574 36.4741 33.4026 35.5932 34.1956C35.144 34.5987 34.651 34.9509 34.1996 35.3525C33.1857 36.2573 32.142 37.1521 31.1502 38.0883C30.6086 38.6072 29.9587 39.0104 29.395 39.5078C28.5064 40.2923 27.654 41.1194 26.7754 41.9139C26.3703 42.2785 25.9504 42.648 25.5293 42.972C24.5911 43.6968 23.8018 44.581 22.8586 45.2908C22.4245 45.6194 21.9958 45.9549 21.4619 45.4481C20.2863 45.2554 19.2234 44.7083 18.1035 44.3455C16.8625 43.943 15.6303 43.505 14.3969 43.0911C13.1635 42.6772 11.9282 42.2835 10.6994 41.8727C9.6052 41.5088 8.49793 41.1792 7.43639 40.7293C6.82783 40.468 6.17392 40.3192 5.54193 40.1103C4.62128 39.8094 3.701 39.5104 2.78803 39.1882C2.6608 39.1496 2.54532 39.0796 2.45224 38.9847C2.35916 38.8898 2.29148 38.7729 2.25543 38.645C2.21939 38.517 2.21615 38.382 2.24599 38.2524C2.27584 38.1229 2.33782 38.0029 2.42623 37.9036C2.74588 37.5336 3.09473 37.1898 3.46944 36.8757C3.99363 36.4199 4.53118 35.9813 5.08629 35.5611C5.24375 35.4425 5.24077 35.3973 5.09208 35.3293C4.78762 35.185 4.47604 35.0563 4.15857 34.9435C3.38397 34.6873 2.61362 34.4123 1.82856 34.2238C1.41137 34.1255 1.33952 33.8832 1.29842 33.5553C1.25458 33.2637 1.16088 33.0515 1.50763 32.7641C2.15631 32.224 2.78935 31.6551 3.43613 31.1055C3.61967 30.9478 3.8074 30.7913 3.97567 30.6168C4.00696 30.5926 4.03136 30.5606 4.04643 30.524C4.0615 30.4874 4.06671 30.4475 4.06156 30.4083C4.0564 30.3691 4.04107 30.3319 4.01706 30.3005C3.99306 30.269 3.96122 30.2444 3.92474 30.2291C3.81753 30.1734 3.70479 30.1291 3.58834 30.0969C2.58397 29.7649 1.57843 29.4371 0.575588 29.1028C0.535172 29.0901 0.497848 29.0691 0.465962 29.0412C0.434076 29.0132 0.408319 28.979 0.390342 28.9406C0.313967 28.6913 0.263169 28.4349 0.238732 28.1752C0.2254 27.9373 0.416111 27.8359 0.597717 27.6885C1.93792 26.6038 3.18344 25.4125 4.51487 24.3135C5.58616 23.4272 6.61433 22.4739 7.6379 21.5274C8.44113 20.7836 9.32186 20.1299 10.0774 19.326C10.5883 18.7834 11.2643 18.4009 11.8279 17.9035C12.7165 17.1189 13.5666 16.2904 14.4476 15.4974C14.8947 15.0946 15.3729 14.7175 15.8418 14.3443C17.184 13.2591 18.4196 12.0579 19.746 10.9639C20.8437 10.0604 21.9002 9.09944 22.9475 8.1423C24.1359 7.05381 25.4613 6.11516 26.5251 4.89025C26.6636 4.77511 26.8125 4.67306 26.9699 4.5854C27.8207 3.94159 27.8165 3.95039 28.7571 4.2314C30.4115 4.72299 32.0179 5.35336 33.6569 5.87782C35.1263 6.34841 36.594 6.84118 38.0444 7.37716C39.0717 7.75435 40.1336 8.02525 41.1358 8.48694C41.7917 8.78655 42.5191 8.90496 43.2058 9.12888C44.5876 9.57904 45.9653 10.0393 47.3391 10.5095C47.4631 10.548 47.5699 10.6283 47.6414 10.7367C47.7129 10.8451 47.7447 10.9749 47.7313 11.104ZM36.0547 26.4461C35.7643 24.9803 35.474 23.5146 35.1829 22.045C35.1556 21.9073 35.1992 21.7356 34.9648 21.6766C34.4061 21.5518 33.8565 21.3896 33.3195 21.1911C32.6723 20.9355 32.0017 20.7423 31.3387 20.5276C30.0648 20.1197 28.8281 19.6189 27.5653 19.187C26.853 18.9443 26.1004 18.8189 25.4019 18.5456C24.1572 18.0544 22.8806 17.653 21.6262 17.2035C21.0325 16.987 20.3992 16.8718 19.8151 16.6336C18.9137 16.2692 17.9696 16.0307 17.0682 15.6763C16.9508 15.6258 16.8205 15.6139 16.696 15.6425C16.5715 15.6711 16.4593 15.7387 16.3758 15.8353C15.7759 16.485 15.12 17.0807 14.4157 17.6156C14.2979 17.7173 14.194 17.8342 14.1067 17.9631C13.9342 18.1862 13.9817 18.3359 14.2685 18.4183C15.1364 18.6739 16.034 18.8481 16.8681 19.184C18.3819 19.7989 19.9714 20.2238 21.506 20.7929C22.927 21.3207 24.3703 21.8005 25.8052 22.2779C27.4404 22.823 29.0586 23.4232 30.7062 23.93C31.0243 24.0301 31.3412 24.1244 31.6505 24.2501C31.7977 24.3094 31.9259 24.4079 32.0211 24.5348C32.1164 24.6618 32.175 24.8124 32.1909 24.9703C32.4101 26.2175 32.6836 27.4579 32.9292 28.6978C33.226 30.1961 33.5228 31.6944 33.8191 33.1907C33.8737 33.4663 33.9823 33.5024 34.2034 33.3135C35.0238 32.5962 35.8228 31.8513 36.6638 31.1577C36.8573 31.0001 36.9569 30.9207 36.9008 30.6574C36.6061 29.2501 36.3383 27.8476 36.0604 26.445L36.0547 26.4461ZM31.1993 28.0362C31.111 27.5904 31.0223 27.1426 30.934 26.6968C30.8802 26.4251 30.8157 26.5213 30.6674 26.6661C29.9953 27.2884 29.2953 27.8606 28.6235 28.4748C27.7805 29.2384 26.8556 29.9406 25.9954 30.6976C25.1049 31.4825 24.2678 32.3265 23.3712 33.1006C22.7075 33.6756 22.0221 34.221 21.3806 34.8273C20.8 35.3798 20.2029 35.7486 19.2467 35.409C18.0593 34.986 16.8438 34.6024 15.6322 34.2279C14.3054 33.8146 13.0072 33.2842 11.6748 32.8621C11.0978 32.6801 10.5167 32.5069 9.95241 32.2885C8.79369 31.8399 7.59305 31.511 6.42971 31.0792C6.30907 31.0128 6.16887 30.9911 6.03377 31.0178C5.89866 31.0446 5.77732 31.1181 5.6911 31.2255C5.13928 31.7326 4.51758 32.1679 3.93864 32.6485C3.82702 32.7676 3.7338 32.9027 3.66206 33.0493C3.5462 33.2273 3.65873 33.1931 3.79446 33.2358C5.20565 33.6941 6.60108 34.2032 8.0192 34.6362C9.14788 34.9833 10.2539 35.3867 11.3684 35.7625C13.0605 36.3341 14.76 36.8924 16.4506 37.4762C17.8548 37.9597 19.2537 38.4661 20.6622 38.9408C20.7481 38.9635 20.8381 38.9663 20.9253 38.949C21.0125 38.9318 21.0946 38.8949 21.1654 38.8411C21.789 38.2145 22.5314 37.7055 23.1385 37.0961C24.2871 35.9578 25.5579 34.9643 26.7413 33.8709C28.0036 32.7041 29.3438 31.6094 30.6439 30.4828C31.5218 29.7243 31.5321 29.7362 31.3244 28.6876L31.1993 28.0362ZM32.2227 33.2027C32.1404 32.7875 32.0586 32.3742 31.9763 31.9589C31.9073 31.6107 31.8252 31.5772 31.5608 31.7986C30.7757 32.4632 30.0139 33.155 29.2154 33.8024C28.2986 34.5447 27.4512 35.3668 26.5466 36.1207C25.481 37.0159 24.4727 37.9891 23.406 38.8885C22.8984 39.2721 22.4247 39.6986 21.9901 40.1632C21.5672 40.6686 21.1451 40.7562 20.5509 40.5477C19.4671 40.1658 18.374 39.8176 17.2805 39.4675C16.3904 39.1804 15.5 38.8616 14.6184 38.5371C13.3324 38.068 12.0293 37.6739 10.7451 37.2143C9.97441 36.9375 9.2029 36.6667 8.4241 36.4093C7.93892 36.2489 7.44183 36.1187 6.9463 35.9762C6.64933 36.2339 6.35239 36.4916 6.05352 36.7496C5.93972 36.8477 5.80566 36.924 5.69531 37.0194C5.35809 37.3249 5.02201 37.636 4.68631 37.9491C4.51959 38.1114 4.61389 38.216 4.77751 38.2791C4.94113 38.3421 5.17706 38.3988 5.38045 38.4718C6.1027 38.6947 6.8292 38.8988 7.54376 39.143C8.80656 39.575 10.0555 40.0375 11.3206 40.471C12.0065 40.701 12.7405 40.8022 13.3991 41.0854C14.6865 41.6417 16.0251 42.0348 17.353 42.4638C17.9288 42.65 18.5027 42.8466 19.0758 43.0393C19.9088 43.3197 20.7439 43.5898 21.5704 43.8875C21.6785 43.9535 21.8072 43.9774 21.9318 43.9546C22.0564 43.9317 22.1682 43.8637 22.2459 43.7636C22.5141 43.4732 22.8036 43.2031 23.1119 42.9557C23.6932 42.4767 24.3275 42.0647 24.8717 41.5393C26.0245 40.4121 27.2724 39.3933 28.4638 38.3102C29.495 37.3722 30.5976 36.5134 31.5822 35.521C31.8777 35.2648 32.1947 35.0343 32.5296 34.8322L32.2872 33.4882L32.2227 33.2027ZM30.3943 9.05355C30.5627 9.06284 30.7295 9.09047 30.8919 9.13596C32.0981 9.54332 33.2947 9.98242 34.5029 10.3795C35.711 10.7765 36.9243 11.1288 38.1313 11.5201C38.6945 11.7028 39.2149 12.2421 39.0471 12.5796C38.8075 13.0565 39.1196 13.297 39.2916 13.5731C39.6742 14.1894 39.72 14.4707 39.207 14.8725C38.42 15.4878 37.6896 16.1674 36.9363 16.8217C35.9082 17.7154 34.8901 18.619 33.8605 19.515C33.7364 19.6211 33.6533 19.6535 33.864 19.7132C34.2884 19.8478 34.7338 19.9684 35.1597 20.1207C35.5325 20.2457 35.7752 20.1559 36.0707 19.8707C36.9065 19.0707 37.7774 18.3275 38.6476 17.5705C39.1963 17.0979 39.8035 16.6893 40.3228 16.1887C41.3058 15.2383 42.3472 14.3619 43.3604 13.4533C43.9942 12.8882 44.6387 12.337 45.2706 11.7724C45.4388 11.6177 45.4039 11.4417 45.1592 11.3808C44.0124 11.0929 42.9245 10.6303 41.7939 10.2935C40.5482 9.92773 39.3052 9.52566 38.0926 9.08577C36.295 8.43362 34.4693 7.86061 32.674 7.21994C32.1047 7.01651 31.5166 6.86852 30.9465 6.67122C30.1716 6.40314 29.3978 6.13086 28.6386 5.82187C28.1585 5.62664 27.8059 5.77404 27.4889 6.11126C26.6111 7.04079 25.5741 7.78908 24.6299 8.64427C23.7565 9.4357 22.8443 10.1911 21.9572 10.9634C20.9081 11.8811 19.8833 12.8318 18.8273 13.7449C18.5978 13.9415 18.3774 14.1542 18.1532 14.3577C18.4269 14.4745 18.698 14.5978 18.9759 14.7058C19.2538 14.8138 19.5582 14.8848 19.8326 15.0154C19.926 15.0744 20.0373 15.0985 20.1468 15.0833C20.2562 15.0682 20.3568 15.0149 20.4307 14.9327C21.2094 14.2057 21.9656 13.4554 22.7859 12.7679C23.8527 11.8686 24.9308 10.9869 25.9197 9.99557C26.0504 9.84481 26.2191 9.73174 26.4082 9.66806C26.5973 9.60438 26.8 9.5924 26.9953 9.63335C27.5456 9.73326 28.1094 9.73274 28.6595 9.63184C29.2377 9.53918 29.7177 9.2015 30.4001 9.05242L30.3943 9.05355ZM14.1467 20.1128C14.0815 20.0044 14.0629 19.9306 14.0186 19.9075C13.5338 19.7391 13.0391 19.5905 12.557 19.4155C12.3436 19.3425 12.2929 19.4679 12.1737 19.579C11.4039 20.2604 10.5818 20.8886 9.85356 21.6095C9.48332 21.9791 9.03065 22.2339 8.67381 22.6008C7.50783 23.8022 6.16664 24.8017 4.93769 25.926C4.20193 26.5988 3.42418 27.2201 2.67237 27.8821C2.65756 27.9093 2.64943 27.9396 2.64864 27.9705C2.64785 28.0014 2.65442 28.0321 2.66782 28.06C2.8858 28.1715 3.11095 28.2684 3.34176 28.3501C4.116 28.5944 4.91318 28.8342 5.66132 29.1176C7.44623 29.806 9.27539 30.3565 11.0795 30.9815C11.6496 31.1788 12.2404 31.3203 12.8008 31.5394C14.0723 32.0352 15.3815 32.4202 16.6699 32.861C17.2736 33.0676 17.8688 33.2917 18.4706 33.4986C18.9573 33.6667 19.4474 33.8222 19.9345 33.9822C20.2381 33.6477 20.712 33.4901 20.9221 33.0548C20.9416 33.0313 20.9654 33.0117 20.9922 32.9972C22.0838 32.0829 23.1289 31.1143 24.2163 30.1989C25.5351 29.0866 26.7818 27.901 28.1193 26.8128C28.5653 26.4541 29.0219 26.1091 29.4621 25.7514C29.7821 25.4892 29.7253 25.1425 29.338 25.0243C28.9507 24.9062 28.5713 24.868 28.2027 24.7441C28.0917 24.6937 27.9674 24.6804 27.8482 24.7062C27.729 24.7319 27.6213 24.7954 27.541 24.8871C26.8018 25.5525 26.0034 26.1601 25.2684 26.8267C24.2786 27.7227 23.2201 28.533 22.2894 29.5068C22.1015 29.712 21.8674 29.8696 21.6065 29.9665C21.3457 30.0635 21.0655 30.0971 20.7891 30.0645C19.6088 29.9284 18.8921 30.0246 18.0355 30.4289C17.7706 30.9487 17.3289 30.6564 17.0636 30.5419C15.8816 30.0561 14.65 29.7314 13.4396 29.3129C12.1237 28.8537 10.8147 28.3692 9.48875 27.9399C9.1045 27.8171 8.89463 27.5206 8.99956 27.2572C9.20864 26.7366 8.92072 26.4575 8.66809 26.1158C8.36892 25.7097 8.34598 25.4935 8.66766 25.1097C9.04296 24.6646 9.45376 24.2507 9.89604 23.8721C10.9256 22.986 12.0018 22.1544 13.0085 21.2431C13.3219 20.9583 13.6289 20.6609 13.9592 20.3906C14.0351 20.3078 14.0984 20.2142 14.1467 20.1128ZM27.4368 11.28C27.3366 11.6975 27.134 10.986 26.8381 11.2693C25.9099 12.1849 24.9015 13.0171 23.9461 13.9063C23.3885 14.4144 22.7111 14.7992 22.26 15.4334C22.1039 15.6493 22.0888 15.7636 22.34 15.8372C22.9158 16.0134 23.5169 16.127 24.0724 16.3511C25.3133 16.853 26.5937 17.2437 27.8473 17.6993C28.4712 17.9277 29.1201 18.1015 29.7456 18.3176C30.4357 18.5488 31.1192 18.7972 31.809 19.0265C31.9133 19.0615 32.1057 19.0791 32.1376 19.029C32.4311 18.5732 32.9586 18.3851 33.3055 18.0181C34.5229 16.735 35.9648 15.7017 37.2379 14.489C37.7043 14.0427 37.7272 14.068 37.4595 13.3792C37.4241 13.2908 37.435 13.1852 37.403 13.0941C37.376 13.0108 37.3189 12.9405 37.2427 12.8972C35.866 12.4321 34.4861 11.9816 33.1098 11.5284C32.3623 11.2787 31.6014 11.0616 30.8816 10.7507C30.5663 10.6143 30.24 10.6134 30.092 10.7799C29.8547 11.0377 29.5777 11.0349 29.3118 11.0776C28.7029 11.1664 28.1095 11.2123 27.438 11.2857L27.4368 11.28ZM20.9398 28.4358C20.9704 28.4297 21.1855 28.4209 21.2545 28.3178C21.5614 27.8593 22.0671 27.6716 22.4255 27.3123C23.3909 26.3435 24.4511 25.4912 25.4639 24.5807C25.621 24.4339 25.7679 24.2766 25.9035 24.1098C25.984 24.0143 26.0691 23.9417 25.8401 23.8797C25.1328 23.7285 24.4383 23.5223 23.7631 23.263C22.0334 22.5119 20.2022 22.0613 18.4478 21.3867C17.8018 21.1368 17.1219 20.9672 16.4766 20.7113C16.3683 20.6549 16.2444 20.6359 16.1242 20.6572C16.004 20.6785 15.8942 20.7389 15.8119 20.829C15.2199 21.344 14.5725 21.7904 14 22.3234C13.0478 23.212 12.0769 24.0797 11.0873 24.9267C10.8775 25.1463 10.6521 25.3504 10.4129 25.5375C10.211 25.663 10.243 25.7541 10.3288 25.9062C10.4146 26.0582 10.4869 26.2328 10.588 26.3818C10.6891 26.5308 10.7863 26.7402 10.9316 26.791C11.3613 26.9525 11.7996 27.0367 12.2266 27.1848C12.9702 27.4352 13.7046 27.7391 14.4493 27.9953C15.4204 28.3299 16.3992 28.6431 17.3764 28.9587C17.4664 28.9945 17.5649 29.0034 17.6599 28.984C18.7069 28.5878 19.8221 28.4034 20.9409 28.4415L20.9398 28.4358ZM36.9688 23.0196C37.0571 23.4655 37.1455 23.9113 37.2342 24.3591C37.2508 24.4433 37.3134 24.5582 37.3764 24.5755C37.4218 24.5766 37.4668 24.5676 37.5082 24.5491C37.5496 24.5306 37.5864 24.503 37.6158 24.4685C38.4292 23.5556 39.426 22.8551 40.3139 22.027C40.9332 21.4489 41.5876 20.9076 42.2256 20.3537C43.0912 19.6036 43.9205 18.8109 44.8418 18.1213C45.3736 17.7237 45.8149 17.2008 46.2871 16.7235C46.3917 16.6192 46.4951 16.5391 46.1973 16.4609C45.4368 16.2675 44.6922 16.0161 43.9702 15.7088C43.8437 15.6466 43.7038 15.6165 43.5629 15.6211C43.4219 15.6258 43.2843 15.6651 43.1622 15.7356C42.8837 15.9159 42.626 16.1264 42.3936 16.3632C41.559 17.1091 40.7229 17.8574 39.894 18.6122C39.1997 19.2429 38.4358 19.7939 37.7918 20.4882C37.4443 20.8224 37.0746 21.1329 36.6853 21.4173L36.9688 23.0196ZM37.9509 27.9776C38.0328 28.3909 38.115 28.8061 38.1969 29.2194C38.2787 29.6327 38.3192 29.6565 38.6511 29.374C39.3182 28.8064 39.9719 28.2215 40.6367 27.6524C41.5295 26.8789 42.4731 26.171 43.3082 25.3474C43.7026 24.9591 44.1458 24.6466 44.5485 24.2804C45.4253 23.4863 46.2597 22.639 47.1765 21.8966C47.4696 21.6595 47.4226 21.6231 47.1784 21.5243C46.5587 21.2772 45.9321 21.0454 45.2997 20.8346C44.9966 20.7034 44.6685 20.6402 44.3383 20.6491C44.1083 20.6828 43.9249 20.9816 43.7081 21.1419C43.0337 21.6504 42.3922 22.2012 41.7876 22.791C40.7966 23.731 39.7204 24.5726 38.734 25.5157C38.4293 25.8047 37.9928 25.9906 37.7726 26.3246C37.4941 26.7556 37.8773 27.2345 37.9002 27.6913C37.9117 27.7896 37.9303 27.8869 37.9559 27.9825L37.9509 27.9776Z" fill="white"/>
<path d="M29.4587 16.2167C28.9286 16.3217 28.5591 16.1324 28.3697 15.7384C28.2927 15.5707 28.539 15.1679 28.7442 14.9086C29.2626 14.253 30.0571 13.9167 30.5686 13.2466C30.776 13.0135 31.064 12.8676 31.3747 12.8384C31.7156 12.8027 31.8427 12.9625 32.0611 13.1717C32.3071 13.4094 32.1491 13.6157 32.1327 13.7939C32.0834 14.0178 31.9556 14.2167 31.7724 14.3545C31.0717 14.8831 30.4085 15.4597 29.7876 16.08C29.6915 16.153 29.5782 16.2001 29.4587 16.2167Z" fill="white"/>
<path d="M20.2716 23.899C20.3409 24.2492 20.2346 24.4353 19.9427 24.688C19.1844 25.3373 18.3749 25.9292 17.7056 26.6862C17.2781 27.1686 16.7419 27.1018 16.3461 26.6094C16.2717 26.5148 16.1391 26.3879 16.1603 26.3141C16.2396 26.0519 16.3045 25.7069 16.4983 25.5711C17.4456 24.9121 18.136 23.9601 19.1215 23.3532C19.3394 23.2186 19.9291 23.1336 20.0417 23.2903C20.146 23.4816 20.2234 23.6865 20.2716 23.899Z" fill="white"/>
</g>
<defs>
<clipPath id="clip0_264_571">
<rect width="50" height="39.7589" fill="white" transform="translate(-3.38623 10.2363) rotate(-11.204)"/>
</clipPath>
</defs>
</svg>
