<svg width="50" height="50" viewBox="0 0 50 50" fill="none" xmlns="http://www.w3.org/2000/svg">
<path d="M34.3064 35.471C32.8165 36.3047 31.5961 37.1324 30.2643 37.6908C28.9326 38.2491 27.5423 38.5049 25.986 38.95C25.9548 39.7499 25.9672 40.5509 26.0232 41.3494C26.0466 41.5719 26.4938 41.7964 26.7867 41.9351C27.6347 42.3293 28.3268 42.9953 28.7534 43.8274C29.18 44.6596 29.3166 45.6102 29.1416 46.5288C28.9783 47.4313 28.5258 48.2562 27.8522 48.8789C27.1787 49.5016 26.3208 49.8883 25.4081 49.9804C24.4766 50.0642 23.5437 49.8372 22.7549 49.335C21.9661 48.8328 21.3658 48.0835 21.0478 47.2043C20.3097 45.1895 21.1649 42.8858 23.141 42.0307C23.9592 41.6754 24.1037 41.2342 24.0412 40.4904C23.9943 39.9457 24.0412 39.3932 24.0412 38.7665C20.997 38.4893 18.3375 37.3823 15.8966 35.3519C15.3362 35.9689 14.7641 36.5077 14.3169 37.1344C14.149 37.3687 14.1763 37.845 14.2837 38.1515C15.1156 40.5392 13.858 43.0849 11.4817 43.7448C9.07206 44.4145 6.69566 42.9385 6.18211 40.4533C5.54749 37.3843 8.58389 34.6569 11.5773 35.6877C12.3935 35.9689 12.8719 35.883 13.407 35.2524C13.7526 34.8404 14.2564 34.5593 14.7231 34.1942C12.6591 31.6895 11.5285 29.0734 11.261 25.979C10.4038 25.979 9.56217 25.9146 8.74205 26.0161C8.48625 26.0473 8.22263 26.4944 8.06837 26.797C7.6677 27.6415 6.99742 28.3287 6.16309 28.7504C5.32876 29.1721 4.37781 29.3043 3.46008 29.1261C2.55698 28.9588 1.73299 28.5018 1.11287 27.8244C0.492762 27.147 0.110303 26.286 0.0233891 25.3719C-0.0568277 24.44 0.174348 23.5079 0.680698 22.7215C1.18705 21.9351 1.93997 21.3388 2.82155 21.0261C4.84647 20.2998 7.11744 21.1705 7.99224 23.1462C8.32028 23.8783 8.7069 24.1009 9.4411 24.0287C10.0152 23.974 10.599 24.0287 11.2434 24.0287C11.5168 20.9616 12.6376 18.3085 14.7036 15.8291C14.3579 15.5811 14.0064 15.421 13.7838 15.1536C13.0965 14.3278 12.4755 13.9568 11.2454 14.3844C9.39033 15.0306 7.38691 13.9334 6.52578 12.1822C6.11008 11.3436 5.98691 10.3901 6.17586 9.47348C6.36482 8.55683 6.85504 7.72973 7.5685 7.12384C8.27407 6.50944 9.16517 6.14907 10.0996 6.10023C11.0339 6.0514 11.9578 6.31692 12.7235 6.85442C13.4963 7.38255 14.068 8.1562 14.3459 9.04991C14.6238 9.94362 14.5916 10.905 14.2544 11.7781C14.0084 12.3989 14.0689 12.7796 14.5649 13.2013C15.0609 13.623 15.4299 14.0798 15.9318 14.6011C18.2886 12.6742 20.9208 11.5087 24.0256 11.2568C24.0256 10.4115 24.0881 9.60128 23.9924 8.80865C23.9592 8.54119 23.5648 8.24249 23.266 8.09607C21.4188 7.19411 20.4737 5.33359 20.8896 3.33445C21.0937 2.40579 21.605 1.57306 22.341 0.970832C23.0769 0.368603 23.9944 0.0320546 24.9453 0.0155655C25.8965 0.00670283 26.8231 0.317189 27.5768 0.897336C28.3306 1.47748 28.8678 2.29371 29.1025 3.21534C29.5594 5.15006 28.712 7.16873 26.9214 7.95941C26.0954 8.32253 25.8943 8.77157 25.9743 9.56419C26.029 10.103 25.9743 10.6516 25.9743 11.249C28.9676 11.4911 31.8062 12.6787 34.0799 14.6401C34.6657 14.0271 35.2515 13.4688 35.7338 12.8421C35.888 12.6469 35.8451 12.1939 35.7513 11.905C35.2144 10.2533 35.4018 8.73447 36.6086 7.45377C37.7802 6.21407 39.2388 5.78457 40.883 6.2824C42.5583 6.79195 43.5483 7.97503 43.8608 9.69109C44.4036 12.6703 41.3906 15.3293 38.4909 14.3258C37.5498 13.9998 37.0674 14.2048 36.5148 14.8627C36.1572 15.2362 35.7743 15.5845 35.3686 15.9052C37.3242 18.1906 38.5108 21.0334 38.7604 24.0306C39.6176 24.0306 40.4299 24.0931 41.2227 23.9935C41.4883 23.9604 41.7753 23.5504 41.9218 23.2478C42.3294 22.3696 43.026 21.658 43.8953 21.2316C44.7646 20.8052 45.7539 20.6899 46.698 20.905C47.6256 21.1155 48.4552 21.6321 49.0532 22.3717C49.6511 23.1112 49.9826 24.0305 49.9941 24.9814C49.9961 25.9153 49.6916 26.824 49.1272 27.5682C48.5628 28.3123 47.7698 28.8507 46.8698 29.1007C44.9582 29.5907 42.8688 28.7805 42.0975 26.9942C41.6894 26.0552 41.1661 25.9126 40.3265 25.9888C39.8461 26.0317 39.3501 25.9888 38.778 25.9888C38.5217 28.9793 37.3341 31.8142 35.3823 34.0947C35.9798 34.6608 36.4992 35.2504 37.1241 35.6936C37.376 35.8732 37.8895 35.8361 38.2254 35.7229C39.2483 35.3564 40.3727 35.3948 41.3682 35.8304C42.3636 36.266 43.1548 37.0657 43.5796 38.0656C43.9973 39.0498 44.0238 40.1562 43.6537 41.1593C43.2836 42.1623 42.5448 42.9865 41.5879 43.4637C39.9711 44.2563 38.407 44.0787 37.0186 42.9502C35.6303 41.8218 35.1011 40.2405 35.6713 38.5732C36.0169 37.5561 35.767 37.0329 35.064 36.4374C34.7262 36.1348 34.4977 35.717 34.3064 35.471ZM24.5723 36.8142C30.9224 37.1832 36.4016 32.1092 36.8175 25.4753C37.208 19.0894 32.0901 13.5527 25.4315 13.1759C19.0697 12.8187 13.5983 17.8848 13.1863 24.5148C12.7899 30.9046 17.902 36.4257 24.5723 36.8142ZM12.5576 10.3314C12.5636 10.0304 12.5092 9.73123 12.3977 9.45154C12.2862 9.17186 12.1198 8.91733 11.9083 8.70298C11.6968 8.48863 11.4446 8.31879 11.1664 8.20349C10.8882 8.08819 10.5897 8.02976 10.2886 8.03164C9.69661 8.04822 9.13329 8.28994 8.71347 8.70749C8.29366 9.12505 8.04898 9.687 8.02933 10.2787C8.02667 10.5798 8.08436 10.8783 8.19897 11.1568C8.31358 11.4352 8.4828 11.6879 8.69665 11.8998C8.91049 12.1118 9.16463 12.2788 9.44408 12.391C9.72353 12.5032 10.0226 12.5584 10.3237 12.5531C10.6172 12.5573 10.9086 12.5028 11.1808 12.3928C11.4529 12.2827 11.7003 12.1194 11.9084 11.9124C12.1165 11.7055 12.2812 11.459 12.3926 11.1875C12.5041 10.916 12.5602 10.6249 12.5576 10.3314ZM39.684 12.5531C39.9851 12.5566 40.2837 12.4997 40.5625 12.386C40.8412 12.2723 41.0944 12.1039 41.3071 11.8909C41.5198 11.6779 41.6877 11.4245 41.801 11.1456C41.9143 10.8667 41.9706 10.568 41.9667 10.267C41.9445 9.67653 41.6981 9.11669 41.2777 8.70141C40.8573 8.28613 40.2944 8.04662 39.7035 8.03164C39.4024 8.03156 39.1042 8.09169 38.8266 8.20848C38.549 8.32528 38.2976 8.4964 38.0871 8.71176C37.8766 8.92712 37.7113 9.18239 37.6009 9.46255C37.4905 9.74272 37.4373 10.0421 37.4443 10.3432C37.4438 10.636 37.5015 10.926 37.6143 11.1963C37.727 11.4666 37.8924 11.7118 38.1009 11.9175C38.3094 12.1232 38.5567 12.2853 38.8285 12.3945C39.1003 12.5036 39.3911 12.5576 39.684 12.5531ZM10.3022 37.437C9.71088 37.4358 9.14258 37.6663 8.71917 38.079C8.29576 38.4918 8.05093 39.0539 8.03714 39.645C8.03858 40.2526 8.27822 40.8354 8.70463 41.2683C9.13105 41.7012 9.71023 41.9497 10.3178 41.9604C10.619 41.9583 10.9166 41.8958 11.1933 41.7769C11.4699 41.6579 11.7199 41.4848 11.9286 41.2678C12.1373 41.0508 12.3005 40.7942 12.4085 40.5131C12.5165 40.2321 12.5672 39.9323 12.5576 39.6314C12.5555 39.3386 12.4954 39.0492 12.3806 38.7799C12.2658 38.5107 12.0986 38.2669 11.8888 38.0627C11.679 37.8586 11.4307 37.6981 11.1583 37.5907C10.886 37.4833 10.595 37.431 10.3022 37.437ZM24.9863 6.46981C25.2874 6.47373 25.5863 6.41743 25.8653 6.30419C26.1444 6.19096 26.398 6.02309 26.6112 5.81046C26.8244 5.59783 26.9929 5.34473 27.1069 5.06603C27.2209 4.78734 27.278 4.48868 27.2748 4.1876C27.2578 3.59678 27.0138 3.03522 26.5934 2.61965C26.173 2.20407 25.6086 1.96643 25.0175 1.95613C24.4093 1.95871 23.827 2.20221 23.398 2.63328C22.9691 3.06435 22.7285 3.64785 22.729 4.25593C22.7403 4.84718 22.983 5.41044 23.405 5.82475C23.8271 6.23906 24.3948 6.47136 24.9863 6.47177V6.46981ZM6.46719 24.9794C6.46628 24.3879 6.2335 23.8203 5.8188 23.3984C5.4041 22.9764 4.84052 22.7338 4.24896 22.7226C3.64163 22.7252 3.06004 22.9682 2.63151 23.3985C2.20297 23.8288 1.96239 24.4113 1.9624 25.0185C1.97318 25.6093 2.21099 26.1733 2.62655 26.5935C3.04211 27.0137 3.6035 27.2579 4.19428 27.2753C4.49519 27.2769 4.79339 27.2185 5.07141 27.1034C5.34943 26.9882 5.60168 26.8188 5.81336 26.605C6.02505 26.3912 6.1919 26.1372 6.30417 25.8581C6.41645 25.579 6.47187 25.2803 6.46719 24.9794ZM43.521 25.0048C43.5193 25.5962 43.7497 26.1647 44.1626 26.5881C44.5755 27.0116 45.1381 27.2562 45.7295 27.2695C46.3373 27.271 46.9211 27.0318 47.3529 26.6041C47.7847 26.1763 48.0295 25.595 48.0336 24.9873C48.0249 24.3961 47.7888 23.8309 47.3742 23.4092C46.9597 22.9875 46.3987 22.7416 45.8076 22.7226C45.5072 22.7197 45.2093 22.7768 44.9312 22.8905C44.6532 23.0043 44.4007 23.1723 44.1884 23.3849C43.9762 23.5974 43.8086 23.8502 43.6953 24.1284C43.582 24.4065 43.5254 24.7045 43.5288 25.0048H43.521ZM39.7231 37.437C39.4305 37.4271 39.1389 37.4754 38.8652 37.5791C38.5914 37.6828 38.341 37.8398 38.1285 38.0411C37.916 38.2423 37.7455 38.4838 37.6271 38.7514C37.5086 39.019 37.4445 39.3075 37.4384 39.6001C37.4245 39.9023 37.4716 40.2042 37.5767 40.4879C37.6818 40.7715 37.8429 41.0312 38.0503 41.2514C38.2578 41.4715 38.5075 41.6478 38.7844 41.7696C39.0614 41.8914 39.36 41.9563 39.6625 41.9604C40.2702 41.958 40.8527 41.7174 41.285 41.2903C41.7172 40.8632 41.9648 40.2838 41.9745 39.6763C41.9689 39.0834 41.7306 38.5165 41.3109 38.0977C40.8913 37.6788 40.3238 37.4416 39.7309 37.437H39.7231ZM24.9961 43.5223C24.407 43.5195 23.8402 43.747 23.4167 44.1562C22.9931 44.5655 22.7463 45.1241 22.729 45.7127C22.7238 46.3208 22.9599 46.9062 23.3856 47.3406C23.8112 47.7749 24.3918 48.0229 25 48.0301C25.6078 48.0239 26.1885 47.7772 26.6148 47.344C27.0411 46.9108 27.2785 46.3263 27.2748 45.7186C27.258 45.1285 27.011 44.5685 26.5867 44.1581C26.1623 43.7477 25.5943 43.5195 25.0039 43.5223H24.9961Z" fill="white"/>
<path d="M21.4694 23.5427C21.4694 22.5978 21.4694 21.6607 21.4694 20.7255C21.4722 19.9338 21.7424 19.1662 22.2361 18.5471C22.7298 17.9281 23.4181 17.4939 24.1895 17.3149C24.6937 17.1946 25.2184 17.1874 25.7258 17.2937C26.2332 17.4 26.7107 17.6172 27.1243 17.9297C27.5378 18.2423 27.8771 18.6424 28.1179 19.1015C28.3586 19.5605 28.4947 20.0671 28.5166 20.5849C28.5439 21.4654 28.5166 22.342 28.5166 23.2284V23.5466C29.0028 23.6012 29.4382 23.7691 29.6725 24.1986C29.8229 24.4687 29.9078 24.7703 29.9205 25.0791C29.944 26.6585 29.9342 28.2379 29.9205 29.8173C29.9205 30.7388 29.3172 31.3284 28.3955 31.3284H21.5612C20.6259 31.3284 20.0342 30.7427 20.0322 29.7939C20.0322 28.2692 20.0322 26.7444 20.0322 25.2197C20.0537 24.2221 20.456 23.7359 21.4694 23.5427ZM21.4694 29.8896H28.499V25.0088H21.4694V29.8896ZM27.097 23.5485C27.097 22.5548 27.1204 21.5962 27.097 20.6201C27.0738 20.0847 26.8444 19.5791 26.4567 19.209C26.0691 18.8389 25.5534 18.6331 25.0174 18.6346C24.4736 18.6256 23.9479 18.8301 23.5533 19.2042C23.1586 19.5784 22.9264 20.0923 22.9065 20.6357C22.8773 21.5709 22.8968 22.508 22.8968 23.4451C22.9018 23.4805 22.911 23.5152 22.9241 23.5485H27.097Z" fill="white"/>
<path d="M23.9453 27.4493C23.9443 27.3112 23.9705 27.1742 24.0225 27.0463C24.0745 26.9183 24.1511 26.8019 24.2482 26.7036C24.3452 26.6053 24.4607 26.5271 24.588 26.4735C24.7153 26.4199 24.8519 26.3919 24.99 26.3911C25.2687 26.3896 25.5366 26.4983 25.7353 26.6937C25.934 26.889 26.0472 27.1551 26.0503 27.4336C26.0519 27.5738 26.0257 27.7128 25.9732 27.8428C25.9208 27.9727 25.8431 28.091 25.7447 28.1908C25.6464 28.2906 25.5292 28.37 25.4 28.4243C25.2708 28.4787 25.1321 28.5069 24.992 28.5074C24.7136 28.5033 24.448 28.3902 24.2523 28.1923C24.0565 27.9944 23.9463 27.7276 23.9453 27.4493Z" fill="white"/>
</svg>
