<svg width="50" height="50" viewBox="0 0 50 50" fill="none" xmlns="http://www.w3.org/2000/svg">
<g clip-path="url(#clip0_264_631)">
<path d="M34.3028 35.471C32.8109 36.3047 31.5925 37.1324 30.2588 37.6908C28.9564 38.2355 27.5368 38.5049 25.9825 38.95C25.9502 39.7499 25.9626 40.5509 26.0196 41.3494C26.043 41.5719 26.4902 41.7964 26.7811 41.9351C27.6295 42.329 28.3221 42.9949 28.749 43.827C29.176 44.6592 29.3129 45.61 29.138 46.5288C28.9733 47.4317 28.5192 48.2564 27.8442 48.8784C27.1692 49.5004 26.3101 49.8859 25.3967 49.9765C24.465 50.0601 23.5319 49.833 22.7429 49.3309C21.9538 48.8287 21.3531 48.0796 21.0344 47.2004C20.2982 45.1856 21.1535 42.8819 23.1296 42.0268C23.9478 41.6715 24.0903 41.2303 24.0278 40.4865C23.9829 39.9418 24.0278 39.3893 24.0278 38.7626C20.9817 38.4854 18.3241 37.3784 15.8833 35.348C15.3209 35.965 14.7488 36.5038 14.3016 37.1305C14.1356 37.3647 14.161 37.8411 14.2684 38.1476C15.1022 40.5353 13.8427 43.0811 11.4663 43.7409C9.05869 44.4106 6.6823 42.9346 6.16874 40.4494C5.53413 37.3804 8.57052 34.653 11.564 35.6838C12.3782 35.965 12.8566 35.8791 13.3917 35.2485C13.7392 34.8365 14.243 34.5554 14.7078 34.1903C12.6438 31.6855 11.5132 29.0695 11.2476 25.9751C10.3904 25.9751 9.54881 25.9107 8.72674 26.0122C8.47094 26.0434 8.20732 26.4905 8.05502 26.7931C7.65583 27.6384 6.98678 28.327 6.1532 28.7504C5.31963 29.1739 4.36887 29.3081 3.45063 29.132C2.54884 28.9616 1.72691 28.5026 1.10877 27.8244C0.490629 27.1462 0.1098 26.2854 0.0236982 25.3719C-0.0560497 24.4398 0.175539 23.5077 0.682217 22.7213C1.1889 21.935 1.94206 21.3388 2.82382 21.0261C4.84874 20.2998 7.11969 21.1705 7.99448 23.1462C8.32058 23.8783 8.70916 24.1009 9.44337 24.0287C10.0175 23.974 10.5993 24.0287 11.2437 24.0287C11.5191 20.9616 12.6379 18.3085 14.7058 15.8291C14.3602 15.5811 14.0087 15.421 13.7861 15.1536C13.0968 14.3278 12.4778 13.9568 11.2476 14.3844C9.39064 15.0306 7.38916 13.9334 6.52608 12.1822C6.11141 11.3434 5.9888 10.3902 6.17771 9.4738C6.36661 8.55741 6.8562 7.73034 7.5688 7.12384C8.27468 6.50928 9.16611 6.14883 10.1008 6.09999C11.0356 6.05116 11.9597 6.31677 12.7258 6.85442C13.4983 7.38283 14.0696 8.1566 14.3471 9.05029C14.6246 9.94398 14.5921 10.9052 14.2547 11.7781C14.0107 12.3989 14.0692 12.7796 14.5672 13.2013C15.0339 13.5918 15.4302 14.0798 15.934 14.6011C18.2929 12.6742 20.9231 11.5087 24.0298 11.2568C24.0298 10.4115 24.0923 9.60128 23.9946 8.80865C23.9634 8.54119 23.567 8.24249 23.2702 8.09607C21.423 7.19411 20.4759 5.33359 20.8938 3.33445C21.0979 2.40579 21.6093 1.57306 22.3452 0.970832C23.0811 0.368603 23.9986 0.0320546 24.9495 0.0155655C25.9007 0.00670283 26.8273 0.317189 27.5811 0.897336C28.3348 1.47748 28.872 2.29371 29.1067 3.21534C29.5617 5.15006 28.7162 7.16873 26.9256 7.95941C26.0996 8.32253 25.8985 8.77157 25.9786 9.56419C26.0313 10.103 25.9883 10.6516 25.9883 11.249C28.9815 11.4915 31.82 12.6791 34.0938 14.6401C34.6699 14.0271 35.2654 13.4688 35.7478 12.8421C35.902 12.6469 35.8591 12.1939 35.7653 11.905C35.2283 10.2533 35.4158 8.73447 36.6206 7.45377C37.7922 6.21407 39.2528 5.78457 40.8969 6.2824C42.5723 6.79195 43.5623 7.97503 43.8748 9.69109C44.4157 12.6703 41.4046 15.3293 38.5049 14.3258C37.5637 13.9998 37.0795 14.2048 36.5288 14.8627C36.2203 15.2317 35.8122 15.5206 35.3826 15.9052C37.3382 18.1906 38.5248 21.0334 38.7744 24.0306C39.6316 24.0306 40.4439 24.0931 41.2367 23.9935C41.5003 23.9604 41.7893 23.5504 41.9358 23.2478C42.3434 22.3696 43.04 21.658 43.9093 21.2316C44.7786 20.8052 45.7679 20.6899 46.712 20.905C47.6392 21.1159 48.4684 21.6327 49.066 22.3722C49.6636 23.1117 49.9947 24.0308 50.0061 24.9814C50.0085 25.9154 49.7041 26.8243 49.1397 27.5685C48.5752 28.3127 47.782 28.851 46.8819 29.1007C44.9702 29.5907 42.8808 28.7805 42.1076 26.9942C41.7014 26.0552 41.1781 25.9126 40.3385 25.9888C39.8562 26.0317 39.3621 25.9888 38.7881 25.9888C38.5336 28.9797 37.3458 31.8152 35.3924 34.0947C35.9918 34.6608 36.5112 35.2504 37.1342 35.6936C37.388 35.8732 37.9016 35.8361 38.2374 35.7229C39.26 35.356 40.3843 35.3942 41.3796 35.8299C42.3749 36.2655 43.1657 37.0655 43.5897 38.0656C44.0083 39.0497 44.0353 40.1565 43.6651 41.1598C43.2949 42.1631 42.5555 42.9872 41.5979 43.4637C39.9811 44.2563 38.419 44.0787 37.0307 42.9502C35.6423 41.8218 35.1131 40.2405 35.6814 38.5732C36.0289 37.5561 35.777 37.0329 35.076 36.4374C34.7246 36.1348 34.4981 35.717 34.3028 35.471ZM24.5668 36.8142C30.9169 37.1832 36.398 32.1092 36.812 25.4753C37.2123 19.0894 32.0865 13.5527 25.4279 13.1759C19.072 12.8206 13.6045 17.8868 13.1866 24.5168C12.7902 30.9046 17.9004 36.4257 24.5707 36.8142H24.5668ZM12.554 10.3314C12.5594 10.0306 12.5047 9.7318 12.393 9.45246C12.2813 9.17312 12.1148 8.91894 11.9034 8.70485C11.692 8.49076 11.4399 8.32109 11.162 8.20582C10.884 8.09054 10.5859 8.03199 10.285 8.0336C9.69424 8.05166 9.1326 8.29409 8.71434 8.71155C8.29608 9.129 8.05263 9.69011 8.03354 10.2807C8.03089 10.5817 8.08857 10.8803 8.20318 11.1587C8.31779 11.4371 8.48701 11.6898 8.70085 11.9018C8.9147 12.1138 9.16884 12.2808 9.44829 12.393C9.72774 12.5052 10.0268 12.5603 10.3279 12.5551C10.6213 12.5587 10.9124 12.5038 11.1842 12.3934C11.4561 12.283 11.7031 12.1195 11.9108 11.9123C12.1185 11.7052 12.2828 11.4586 12.3939 11.1872C12.505 10.9157 12.5608 10.6248 12.5579 10.3314H12.554ZM39.6804 12.5531C39.9814 12.5563 40.28 12.4993 40.5586 12.3854C40.8372 12.2716 41.0903 12.1033 41.3029 11.8903C41.5156 11.6773 41.6835 11.424 41.7969 11.1453C41.9102 10.8665 41.9668 10.5679 41.9631 10.267C41.9405 9.67636 41.6937 9.1165 41.2729 8.70126C40.8521 8.28603 40.289 8.04659 39.698 8.03164C39.3969 8.03155 39.0989 8.09169 38.8214 8.20851C38.5439 8.32533 38.2926 8.49648 38.0822 8.71187C37.8719 8.92726 37.7068 9.18254 37.5966 9.4627C37.4864 9.74285 37.4334 10.0422 37.4407 10.3432C37.4402 10.6363 37.4981 10.9267 37.611 11.1972C37.724 11.4678 37.8898 11.7131 38.0987 11.9189C38.3076 12.1247 38.5554 12.2867 38.8276 12.3956C39.0999 12.5045 39.3911 12.5581 39.6843 12.5531H39.6804ZM10.3025 37.437C9.71118 37.4358 9.14289 37.6663 8.71948 38.079C8.29607 38.4918 8.05123 39.0539 8.03744 39.645C8.03888 40.2526 8.27853 40.8354 8.70495 41.2683C9.13136 41.7012 9.71055 41.9497 10.3182 41.9604C10.6193 41.9583 10.9169 41.8958 11.1936 41.7769C11.4702 41.6579 11.7202 41.4848 11.9289 41.2678C12.1377 41.0508 12.3008 40.7942 12.4088 40.5131C12.5168 40.2321 12.5675 39.9323 12.5579 39.6314C12.5559 39.3386 12.4957 39.0492 12.3809 38.7799C12.2661 38.5107 12.0989 38.2669 11.8891 38.0627C11.6793 37.8586 11.431 37.6981 11.1586 37.5907C10.8863 37.4833 10.5953 37.431 10.3025 37.437ZM24.9866 6.47177C25.2877 6.47516 25.5864 6.41841 25.8652 6.30485C26.144 6.19129 26.3974 6.0232 26.6103 5.81044C26.8233 5.59768 26.9917 5.34454 27.1055 5.06587C27.2193 4.78719 27.2763 4.4886 27.2732 4.1876C27.2557 3.59694 27.0115 3.03565 26.5912 2.62017C26.1709 2.20469 25.6068 1.9669 25.0159 1.95613C24.4077 1.95871 23.8253 2.20221 23.3964 2.63328C22.9674 3.06435 22.7268 3.64785 22.7274 4.25593C22.7386 4.84752 22.9816 5.41108 23.4041 5.82544C23.8266 6.2398 24.3948 6.47187 24.9866 6.47177ZM6.47336 24.9794C6.47346 24.3879 6.24127 23.82 5.82678 23.3979C5.41228 22.9759 4.84861 22.7333 4.25708 22.7226C3.64839 22.7231 3.06481 22.9652 2.63459 23.3957C2.20436 23.8263 1.9627 24.4099 1.9627 25.0185C1.973 25.6095 2.21068 26.1737 2.62633 26.594C3.04199 27.0143 3.60366 27.2583 4.19459 27.2753C4.49607 27.278 4.79502 27.2203 5.07384 27.1056C5.35266 26.9909 5.60571 26.8216 5.81807 26.6077C6.03043 26.3937 6.19782 26.1394 6.31036 25.8598C6.4229 25.5802 6.47832 25.2808 6.47336 24.9794ZM43.5291 25.0048C43.5275 25.5962 43.7578 26.1647 44.1708 26.5881C44.5837 27.0116 45.1462 27.2562 45.7376 27.2695C46.3455 27.271 46.9292 27.0318 47.361 26.6041C47.7929 26.1763 48.0376 25.595 48.0418 24.9873C48.0325 24.3962 47.7963 23.8313 47.3818 23.4097C46.9674 22.9881 46.4066 22.7421 45.8157 22.7226C45.5147 22.7187 45.2159 22.775 44.937 22.8883C44.658 23.0015 44.4046 23.1694 44.1915 23.3821C43.9784 23.5947 43.8101 23.8478 43.6963 24.1265C43.5826 24.4052 43.5257 24.7038 43.5291 25.0048ZM39.7312 37.437C39.4385 37.4271 39.1468 37.4754 38.873 37.5791C38.5992 37.6828 38.3486 37.8397 38.1359 38.041C37.9232 38.2422 37.7526 38.4836 37.6339 38.7513C37.5153 39.0189 37.4509 39.3074 37.4446 39.6001C37.431 39.9011 37.4778 40.2018 37.5822 40.4844C37.6865 40.7671 37.8464 41.026 38.0524 41.246C38.2584 41.4659 38.5063 41.6424 38.7815 41.7651C39.0567 41.8878 39.3537 41.9542 39.655 41.9604C40.2627 41.958 40.8452 41.7174 41.2775 41.2903C41.7097 40.8632 41.9573 40.2838 41.967 39.6763C41.9609 39.0849 41.7235 38.5195 41.3057 38.1009C40.8878 37.6824 40.3226 37.4441 39.7312 37.437ZM25.0042 43.5223C24.4138 43.5174 23.845 43.744 23.4198 44.1535C22.9945 44.563 22.7467 45.1227 22.7293 45.7127C22.7241 46.3205 22.9599 46.9056 23.3852 47.3399C23.8104 47.7742 24.3905 48.0224 24.9983 48.0301C25.6052 48.0239 26.1849 47.778 26.6111 47.3461C27.0373 46.9141 27.2753 46.3312 27.2732 45.7244C27.2589 45.1334 27.0131 44.5715 26.5888 44.1597C26.1645 43.7479 25.5955 43.519 25.0042 43.5223Z" fill="white"/>
</g>
<g clip-path="url(#clip1_264_631)">
<path d="M25.0759 25.6709C24.3261 25.6727 23.6058 25.3788 23.0712 24.853C22.5367 24.3271 22.231 23.6118 22.2205 22.862C22.1966 21.3108 23.4942 20.0007 25.0566 20C25.806 20.0047 26.5235 20.3037 27.0543 20.8327C27.5852 21.3617 27.8868 22.0781 27.8941 22.8275C27.9087 24.3694 26.6284 25.6603 25.0759 25.6709ZM25.0507 24.5327C25.4982 24.5352 25.9287 24.3611 26.2487 24.0482C26.5687 23.7353 26.7524 23.3088 26.7599 22.8613C26.7633 22.4083 26.5871 21.9723 26.2699 21.6488C25.9527 21.3252 25.5203 21.1404 25.0673 21.1348C24.6142 21.1362 24.1801 21.3168 23.8597 21.6372C23.5394 21.9576 23.3588 22.3917 23.3574 22.8447C23.361 23.2922 23.5408 23.7202 23.8577 24.0361C24.1746 24.3521 24.6032 24.5305 25.0507 24.5327Z" fill="white"/>
<path d="M19.3859 26.2339C19.0867 26.2341 18.7904 26.1751 18.5141 26.0601C18.2378 25.9451 17.9871 25.7765 17.7764 25.564C17.5657 25.3516 17.3992 25.0994 17.2866 24.8222C17.174 24.5449 17.1174 24.2481 17.1202 23.9489C17.122 23.6524 17.1823 23.3591 17.2975 23.0858C17.4127 22.8125 17.5806 22.5647 17.7916 22.3563C18.0026 22.1479 18.2526 21.9832 18.5273 21.8714C18.802 21.7597 19.096 21.7032 19.3926 21.7051C19.6918 21.7052 19.9881 21.7644 20.2644 21.8794C20.5406 21.9943 20.7915 22.1628 21.0025 22.375C21.2134 22.5872 21.3804 22.839 21.4937 23.116C21.6071 23.3929 21.6646 23.6895 21.6629 23.9887C21.6554 24.5874 21.4121 25.1589 20.9858 25.5792C20.5595 25.9995 19.9846 26.2348 19.3859 26.2339ZM19.3693 22.8413C19.2226 22.8426 19.0776 22.8729 18.9426 22.9304C18.8076 22.9878 18.6853 23.0714 18.5827 23.1763C18.4801 23.2812 18.3992 23.4053 18.3447 23.5416C18.2902 23.6778 18.2631 23.8234 18.265 23.9702C18.2639 24.1198 18.2928 24.2682 18.35 24.4065C18.4072 24.5449 18.4915 24.6703 18.5979 24.7755C18.7044 24.8808 18.8308 24.9636 18.9698 25.0191C19.1088 25.0747 19.2575 25.1019 19.4072 25.099C19.7032 25.0923 19.985 24.9708 20.193 24.7601C20.4011 24.5495 20.5191 24.2662 20.5221 23.9702C20.5205 23.8203 20.4895 23.6723 20.4307 23.5345C20.3719 23.3967 20.2866 23.2718 20.1795 23.167C20.0725 23.0621 19.9458 22.9794 19.8068 22.9235C19.6678 22.8677 19.5191 22.8397 19.3693 22.8413Z" fill="white"/>
<path d="M30.7311 26.2341C30.4318 26.2341 30.1356 26.1751 29.8592 26.0604C29.5829 25.9458 29.3318 25.7777 29.1205 25.5659C28.9092 25.3541 28.7417 25.1026 28.6277 24.826C28.5137 24.5494 28.4554 24.253 28.4561 23.9538C28.4622 23.3553 28.7042 22.7835 29.1296 22.3625C29.5549 21.9415 30.1292 21.7053 30.7277 21.7054C31.0271 21.7037 31.3238 21.7615 31.6005 21.8756C31.8773 21.9896 32.1287 22.1576 32.3399 22.3696C32.5512 22.5817 32.7182 22.8337 32.8312 23.1109C32.9442 23.3881 33.0009 23.685 32.9981 23.9843C32.9949 24.583 32.7545 25.156 32.3295 25.5778C31.9046 25.9995 31.3298 26.2355 30.7311 26.2341ZM30.7237 22.8415C30.4273 22.8437 30.1435 22.9615 29.9326 23.1699C29.7218 23.3783 29.6006 23.6607 29.5949 23.9571C29.5951 24.2593 29.7149 24.5491 29.9282 24.7631C30.1415 24.9772 30.4309 25.098 30.733 25.0993C31.0295 25.0991 31.3137 24.9814 31.5236 24.7721C31.7334 24.5627 31.8517 24.2788 31.8526 23.9823C31.8553 23.8328 31.828 23.6842 31.7723 23.5454C31.7167 23.4066 31.6338 23.2803 31.5287 23.174C31.4235 23.0677 31.298 22.9835 31.1598 22.9264C31.0216 22.8693 30.8733 22.8404 30.7237 22.8415Z" fill="white"/>
<path d="M29.029 29.5224C29.0329 29.6563 28.9893 29.7874 28.9058 29.8922C28.8222 29.997 28.7043 30.0688 28.5728 30.0948C28.4296 30.1212 28.2816 30.0917 28.1595 30.0122C28.0375 29.9328 27.9505 29.8095 27.9167 29.6678C27.8789 29.5184 27.8676 29.361 27.8257 29.2129C27.7169 28.8267 27.4895 28.4843 27.1757 28.2341C26.8619 27.984 26.4775 27.8386 26.0767 27.8185C25.4027 27.7912 24.726 27.7906 24.052 27.8185C23.1582 27.855 22.445 28.4905 22.2591 29.3683C22.2458 29.4347 22.2339 29.5011 22.2173 29.5629C22.1316 29.8949 21.8727 30.0775 21.5572 30.0211C21.2538 29.9666 21.0665 29.689 21.1103 29.353C21.2797 28.0701 22.289 26.9306 23.5752 26.7839C24.5632 26.6707 25.5609 26.6707 26.5488 26.7839C27.8311 26.9326 28.9028 28.0794 29.029 29.5224Z" fill="white"/>
<path d="M30.7255 27.0303C31.1551 27.0754 31.5761 27.0608 31.9612 27.1717C32.8603 27.4314 33.3803 28.0702 33.549 28.9852C33.6193 29.3637 33.4221 29.6492 33.0901 29.705C32.7581 29.7608 32.5031 29.5569 32.4261 29.1738C32.3045 28.5403 31.8948 28.1744 31.254 28.183C30.7168 28.1897 30.1796 28.2395 29.6444 28.2913C29.3363 28.3212 29.0468 28.1585 28.9804 27.8729C28.9053 27.5628 29.0694 27.2454 29.3947 27.1863C29.8403 27.1033 30.2932 27.0774 30.7255 27.0303Z" fill="white"/>
<path d="M16.5562 29.1238C16.5562 28.2253 17.3935 27.2226 18.3696 27.1217C19.1187 27.0447 19.887 27.1157 20.6433 27.1722C21.0178 27.2 21.2091 27.5327 21.132 27.8614C21.055 28.1901 20.7429 28.2977 20.3485 28.2598C19.7485 28.1893 19.1429 28.1797 18.541 28.2313C18.0277 28.2844 17.764 28.6842 17.6817 29.1928C17.6253 29.5414 17.3782 29.74 17.0675 29.7134C16.768 29.6862 16.5568 29.4438 16.5562 29.1238Z" fill="white"/>
</g>
<defs>
<clipPath id="clip0_264_631">
<rect width="50" height="50" fill="white"/>
</clipPath>
<clipPath id="clip1_264_631">
<rect width="17.0073" height="10.1" fill="white" transform="translate(16.5562 20)"/>
</clipPath>
</defs>
</svg>
