<svg width="42" height="49" viewBox="0 0 42 49" fill="none" xmlns="http://www.w3.org/2000/svg">
<g clip-path="url(#clip0_262_496)">
<path d="M27.6223 11.5556C28.9426 12.9291 28.8706 14.5761 28.7593 16.2946H27.1609C27.1732 14.6618 27.3669 12.9128 25.4924 11.9311C23.7642 12.8414 23.7292 14.4945 23.8796 16.2701H22.2647C22.1225 14.6169 22.0237 12.972 23.3976 11.5576C22.3677 11.325 21.6385 11.4474 20.9258 12.1903C19.1131 14.0965 17.1913 15.8966 15.3416 17.7681C10.9047 22.2581 9.62964 27.508 11.5165 33.5177C11.5576 33.6463 11.6009 33.7729 11.6606 33.9565C11.4073 34.079 11.1766 34.2035 10.9335 34.3035C10.6905 34.4035 10.4927 34.4586 10.1796 34.5647C9.17311 32.1263 8.80536 29.4753 9.11057 26.8583C9.55137 22.8173 11.2919 19.3988 14.2272 16.5578C16.2355 14.6149 18.2047 12.6312 19.9556 10.8984C19.3047 9.10651 18.5714 7.56767 18.1965 5.9472C17.6754 3.692 18.5096 2.44909 20.761 1.85519C21.2553 1.72457 21.9413 1.93887 22.4233 2.20418C23.5418 2.81646 23.7683 2.81646 24.5531 1.81029C24.6788 1.64906 24.7962 1.4817 24.9239 1.32251C26.51 -0.628588 29.058 -0.389799 30.2197 1.84907C30.6461 2.66543 30.9077 3.45118 32.1704 3.31648C33.6123 3.16341 33.8801 3.56751 33.7029 5.05328C33.466 7.01867 32.8646 8.21668 30.8027 10.729C31.7172 11.6066 32.6668 12.4801 33.5711 13.3985C35.2478 15.1006 37.0728 16.6987 38.5332 18.5661C45.1577 26.993 41.9175 39.318 32.0551 43.5692C31.6431 43.7427 31.2311 43.8876 30.7306 44.0794L30.193 42.5957C30.4916 42.463 30.7326 42.3487 30.9798 42.2467C33.253 41.3465 35.2673 39.905 36.8444 38.0499C38.4215 36.1948 39.5129 33.9832 40.022 31.6107C40.5312 29.2382 40.4423 26.7779 39.7634 24.4475C39.0844 22.1171 37.8363 19.9884 36.1294 18.2498C34.0421 16.0864 31.9012 13.9775 29.7068 11.923C29.2702 11.5148 28.4709 11.4923 27.8345 11.2923L27.6223 11.5556ZM32.02 4.79205C30.0488 5.5084 29.4823 4.22264 28.9303 2.9185C28.8623 2.7631 28.7839 2.61241 28.6955 2.46746C28.0775 1.44701 27.0476 1.37354 26.2587 2.29603C26.0527 2.52869 25.8879 2.7838 25.6984 3.02462C24.6026 4.41856 23.3934 4.6451 21.8403 3.74915C20.7754 3.13688 19.7311 3.70425 19.7496 4.93491C19.7576 6.58155 20.3538 8.1722 21.4325 9.42489C21.6943 9.66765 22.04 9.802 22.3986 9.80042C24.4872 9.83307 26.5759 9.82899 28.6666 9.80042C28.9963 9.80331 29.3174 9.697 29.5791 9.49836C30.9015 8.29627 31.8017 6.85336 32.02 4.79205Z" fill="white"/>
<path d="M0 48.9549V47.3916H9.78215V38.4402H0.0267788V36.7503C1.83737 36.7503 3.65826 36.6075 5.45031 36.781C8.90465 37.1197 12.0129 36.3973 14.8205 34.3604C15.3905 33.9823 15.9905 33.6506 16.6146 33.3686C17.7825 32.7787 19.0741 32.9604 19.9474 33.7992C20.8208 34.638 21.035 35.8891 20.483 37.0891C20.277 37.5198 20.0545 37.9381 19.8424 38.3647C19.6364 38.7565 19.4592 39.1525 19.2141 39.6566C19.5581 39.8607 19.865 40.0382 20.1822 40.2076C22.7776 41.5934 25.3771 42.969 27.9705 44.3588C29.3052 45.0752 29.8532 46.0936 29.5463 47.2263C29.227 48.4059 28.3104 48.9998 26.7778 48.9998C18.1664 48.9998 9.55351 48.9998 0.939284 48.9998C0.638548 48.9978 0.337813 48.9733 0 48.9549ZM11.4959 47.363H26.9941C27.0971 47.363 27.231 47.3957 27.2969 47.3447C27.5255 47.1691 27.8304 46.9957 27.9149 46.7569C27.9746 46.5773 27.7892 46.2467 27.6182 46.0773C27.3783 45.8857 27.1128 45.7277 26.8293 45.6078C23.9311 44.0629 21.0432 42.5016 18.1306 40.9852C17.2758 40.5423 17.0801 40.0362 17.5683 39.1933C18.0849 38.3505 18.5221 37.4624 18.8743 36.5401C19.0349 36.0809 19.0143 35.285 18.7239 35.0197C18.4334 34.7543 17.6033 34.7523 17.1749 34.9645C15.4282 35.8258 13.7391 36.8014 12.0438 37.7667C11.8152 37.8953 11.5268 38.1749 11.5248 38.4035C11.4856 41.3567 11.4959 44.3058 11.4959 47.363Z" fill="white"/>
<path d="M21.9494 38.5076C22.1368 38.0219 22.3057 37.5872 22.4664 37.1688C28.1804 37.9484 31.7357 36.4402 33.6575 32.4747C34.4855 30.7573 34.7413 28.8237 34.3881 26.9529C34.0349 25.0821 33.0909 23.3708 31.6924 22.0661C30.2983 20.7594 28.5198 19.9275 26.6156 19.6915C24.7114 19.4555 22.7809 19.8276 21.1049 20.7538C17.3312 22.8335 15.8461 26.5683 16.8781 31.5808L15.533 32.0828C13.6524 28.7541 15.2261 23.1396 18.7793 20.3313C20.7605 18.7451 23.2481 17.9116 25.7943 17.9808C28.3406 18.05 30.7783 19.0174 32.6688 20.7089C34.5611 22.3975 35.7834 24.6995 36.1161 27.2011C36.4487 29.7027 35.8698 32.2398 34.4835 34.3564C31.7913 38.4709 26.2071 40.3628 21.9494 38.5076Z" fill="white"/>
<path d="M24.6048 25.2826C24.2546 24.7051 24.0116 24.305 23.7809 23.9173C25.2124 22.6601 25.3505 22.6437 26.8397 23.5295C27.8099 24.105 28.8172 24.6336 29.7235 25.2908C30.1031 25.5898 30.3493 26.0243 30.4094 26.5011C30.4949 27.893 30.4949 29.2888 30.4094 30.6808C30.3821 30.9176 30.3073 31.1466 30.1895 31.3544C30.0717 31.5622 29.9133 31.7447 29.7235 31.8911C28.5982 32.664 27.4237 33.3642 26.2073 33.9871C25.9887 34.0815 25.7527 34.1303 25.5142 34.1303C25.2757 34.1303 25.0397 34.0815 24.8211 33.9871C23.5998 33.3686 22.4229 32.6676 21.2988 31.889C20.9015 31.5633 20.648 31.0969 20.5922 30.589C20.4934 29.442 20.6375 28.2726 20.5366 27.1194C20.4398 26.0051 20.8353 25.301 21.859 24.8908C22.1085 24.77 22.35 24.6336 22.582 24.4826L23.3709 25.7316C22.9404 26.1663 22.3019 26.5092 22.2607 26.9113C22.1412 28.1154 21.8632 29.5644 22.3884 30.5012C22.891 31.4053 24.2711 32.1503 25.3608 32.3074C26.1723 32.4258 27.1507 31.5155 28.0385 31.0176C28.3352 30.8482 28.7492 30.5441 28.7636 30.2849C28.8233 29.0603 28.9696 27.7889 28.6565 26.646C28.5061 26.0929 27.4206 25.7663 26.7429 25.3826C26.0858 25.0214 25.4679 24.2275 24.6048 25.2826Z" fill="white"/>
</g>
<defs>
<clipPath id="clip0_262_496">
<rect width="42" height="49" fill="white"/>
</clipPath>
</defs>
</svg>
