<svg width="48" height="29" viewBox="0 0 48 29" fill="none" xmlns="http://www.w3.org/2000/svg">
<g clip-path="url(#clip0_264_582)">
<path d="M23.7033 15.7774C21.6172 15.7825 19.6132 14.9648 18.126 13.5018C16.6388 12.0389 15.7884 10.0485 15.7592 7.96259C15.6927 3.64691 19.3026 0.00184747 23.6497 0C25.7346 0.0129923 27.7308 0.845086 29.2077 2.31676C30.6845 3.78843 31.5236 5.7817 31.544 7.86652C31.5846 12.1563 28.0227 15.7478 23.7033 15.7774ZM23.6331 12.6108C24.8783 12.6178 26.076 12.1335 26.9663 11.2629C27.8566 10.3923 28.3676 9.20576 28.3885 7.96074C28.3979 6.70022 27.9077 5.48726 27.0252 4.58713C26.1428 3.68699 24.9398 3.17292 23.6793 3.15732C22.4188 3.16122 21.211 3.66368 20.3197 4.55499C19.4284 5.4463 18.926 6.65406 18.9221 7.91456C18.9323 9.15949 19.4323 10.3503 20.3141 11.2293C21.1958 12.1082 22.3882 12.6046 23.6331 12.6108Z" fill="white"/>
<path d="M7.87271 17.3438C7.04018 17.3445 6.21575 17.1802 5.44712 16.8604C4.67849 16.5405 3.98089 16.0714 3.3947 15.4802C2.8085 14.8891 2.34534 14.1875 2.03198 13.4162C1.71863 12.6449 1.56131 11.8191 1.56913 10.9866C1.5742 10.1616 1.74179 9.34562 2.06227 8.58535C2.38276 7.82507 2.84988 7.13539 3.43696 6.55568C4.02404 5.97597 4.71959 5.51761 5.48386 5.20676C6.24812 4.89591 7.06614 4.73867 7.89118 4.74403C8.72373 4.74426 9.548 4.90903 10.3167 5.22885C11.0853 5.54868 11.7832 6.01727 12.3702 6.60768C12.9572 7.19809 13.4217 7.89868 13.737 8.6692C14.0523 9.43971 14.2123 10.2649 14.2077 11.0975C14.1868 12.763 13.5098 14.353 12.3238 15.5224C11.1377 16.6919 9.53833 17.3463 7.87271 17.3438ZM7.82653 7.90505C7.41832 7.90866 7.01483 7.99286 6.63925 8.15282C6.26366 8.31278 5.92338 8.54534 5.63791 8.83716C5.35244 9.12898 5.12741 9.4743 4.97576 9.85331C4.8241 10.2323 4.74881 10.6376 4.75418 11.0457C4.75115 11.4622 4.83154 11.875 4.99062 12.2598C5.1497 12.6447 5.38425 12.9937 5.68042 13.2865C5.9766 13.5792 6.32839 13.8096 6.71507 13.9642C7.10174 14.1188 7.51547 14.1943 7.93182 14.1864C8.75533 14.1678 9.53933 13.8297 10.1182 13.2436C10.697 12.6576 11.0253 11.8694 11.0337 11.0457C11.0294 10.6289 10.943 10.217 10.7794 9.83363C10.6159 9.45021 10.3785 9.10276 10.0806 8.81111C9.78281 8.51947 9.43045 8.28934 9.04369 8.13388C8.65692 7.97841 8.24334 7.90066 7.82653 7.90505Z" fill="white"/>
<path d="M39.4369 17.3445C38.6044 17.3445 37.7802 17.1803 37.0113 16.8613C36.2424 16.5423 35.544 16.0747 34.9561 15.4854C34.3681 14.8961 33.9022 14.1966 33.585 13.427C33.2678 12.6573 33.1055 11.8327 33.1074 11.0003C33.1245 9.33527 33.7978 7.74427 34.9813 6.57295C36.1647 5.40163 37.7625 4.74464 39.4276 4.74473C40.2605 4.74004 41.0859 4.90102 41.8559 5.21829C42.626 5.53557 43.3252 6.00282 43.913 6.59285C44.5008 7.18287 44.9654 7.8839 45.2798 8.65514C45.5941 9.42638 45.752 10.2524 45.7441 11.0852C45.7353 12.7509 45.0665 14.3451 43.8841 15.5184C42.7018 16.6917 41.1026 17.3484 39.4369 17.3445ZM39.4166 7.90575C38.5918 7.91186 37.8021 8.23967 37.2155 8.81938C36.6288 9.3991 36.2917 10.1849 36.2759 11.0095C36.2763 11.8502 36.6097 12.6565 37.2032 13.252C37.7966 13.8475 38.6017 14.1837 39.4424 14.1871C40.2671 14.1867 41.058 13.8593 41.6418 13.2769C42.2256 12.6945 42.5548 11.9044 42.5572 11.0797C42.5647 10.6637 42.4887 10.2503 42.3339 9.86409C42.1791 9.47785 41.9486 9.12648 41.6559 8.8307C41.3632 8.53492 41.0143 8.30071 40.6297 8.14186C40.2451 7.983 39.8326 7.90273 39.4166 7.90575Z" fill="white"/>
<path d="M34.7015 26.4929C34.7126 26.8656 34.5911 27.2301 34.3587 27.5217C34.1263 27.8133 33.7981 28.013 33.4323 28.0854C33.0338 28.159 32.6222 28.0768 32.2826 27.8557C31.9429 27.6347 31.7011 27.2917 31.607 26.8975C31.5017 26.4818 31.4703 26.044 31.3539 25.632C31.0509 24.5573 30.4184 23.6048 29.5453 22.9088C28.6723 22.2128 27.6028 21.8082 26.4877 21.7523C24.6125 21.6765 22.7299 21.6747 20.8547 21.7523C18.368 21.8539 16.3839 23.6219 15.8666 26.0643C15.8296 26.249 15.7964 26.4338 15.7502 26.6056C15.5119 27.5293 14.7913 28.0374 13.9138 27.8803C13.0695 27.7289 12.5485 26.9566 12.6705 26.0218C13.1416 22.4525 15.9497 19.2822 19.5283 18.8739C22.2769 18.5589 25.0526 18.5589 27.8012 18.8739C31.3687 19.2878 34.3505 22.4783 34.7015 26.4929Z" fill="white"/>
<path d="M39.4213 19.5596C40.6166 19.6852 41.7879 19.6446 42.8594 19.9531C45.3609 20.6754 46.8074 22.4527 47.2767 24.9985C47.4725 26.0516 46.9238 26.846 46.0001 27.0012C45.0764 27.1564 44.3669 26.5892 44.1526 25.5232C43.8145 23.7607 42.6747 22.7428 40.8919 22.7668C39.3973 22.7853 37.9027 22.9238 36.4136 23.0679C35.5564 23.1511 34.7509 22.6984 34.5661 21.904C34.3574 21.0412 34.8137 20.1582 35.7189 19.9937C36.9586 19.7628 38.2186 19.6907 39.4213 19.5596Z" fill="white"/>
<path d="M0 25.3839C0 22.8842 2.32967 20.0946 5.04545 19.8138C7.12939 19.5994 9.26691 19.7971 11.3712 19.9542C12.4132 20.0318 12.9452 20.9573 12.7309 21.8718C12.5166 22.7863 11.6483 23.0856 10.5509 22.9803C8.88163 22.784 7.19674 22.7574 5.52209 22.9009C4.09399 23.0487 3.36056 24.1608 3.13147 25.576C2.97444 26.5459 2.28718 27.0983 1.42256 27.0244C0.589356 26.9487 0.00184747 26.2744 0 25.3839Z" fill="white"/>
</g>
<defs>
<clipPath id="clip0_264_582">
<rect width="47.3174" height="28.1" fill="white"/>
</clipPath>
</defs>
</svg>
